<svg width="500" height="183" viewBox="0 0 500 183" fill="none" xmlns="http://www.w3.org/2000/svg">
<rect width="500" height="182.558" fill="#101820"/>
<g clip-path="url(#clip0_1019_14093)">
<path d="M174.431 74.7324C174.765 74.7324 175.037 75.0019 175.037 75.3329V100.799C175.037 112.871 167.41 118.814 157.342 118.814C147.274 118.814 139.646 112.871 139.646 100.799V75.3329C139.646 75.0019 139.919 74.7324 140.253 74.7324H146.232C146.566 74.7324 146.838 75.0019 146.838 75.3329V100.368C146.838 108.79 151.278 112.132 157.342 112.132C163.406 112.132 167.846 108.79 167.846 100.368V75.3329C167.846 75.0019 168.118 74.7324 168.452 74.7324H174.431Z" fill="white"/>
<path d="M279.197 96.4044C279.135 109.161 269.315 118.815 256.502 118.815C243.689 118.815 233.808 109.153 233.808 96.4044C233.808 83.6557 243.689 73.9941 256.502 73.9941C269.315 73.9941 279.135 83.6557 279.197 96.4044ZM240.929 96.4044C240.929 105.442 247.623 112.132 256.495 112.132C265.366 112.132 271.997 105.442 271.997 96.4044C271.997 87.3664 265.303 80.6764 256.495 80.6764C247.686 80.6764 240.929 87.3664 240.929 96.4044Z" fill="white"/>
<path d="M342.918 118.076H336.73C336.302 118.076 336.007 117.652 336.162 117.26L352.536 75.3723C352.668 75.0259 353.01 74.7949 353.383 74.7949H361.127C361.5 74.7949 361.842 75.0259 361.974 75.3723L378.348 117.26C378.504 117.652 378.208 118.076 377.781 118.076H371.592C371.343 118.076 371.11 117.922 371.024 117.691L357.815 83.2094C357.621 82.6936 356.874 82.6936 356.68 83.2094L343.47 117.691C343.377 117.922 343.152 118.076 342.903 118.076H342.918Z" fill="white"/>
<path d="M92.8423 118.076H86.6535C86.2259 118.076 85.9305 117.652 86.086 117.26L102.467 75.3723C102.6 75.0259 102.942 74.7949 103.315 74.7949H111.059C111.432 74.7949 111.774 75.0259 111.906 75.3723L128.28 117.26C128.435 117.652 128.14 118.076 127.712 118.076H121.524C121.275 118.076 121.042 117.922 120.956 117.691L107.754 83.2017C107.56 82.6859 106.814 82.6859 106.619 83.2017L93.4098 117.683C93.3165 117.914 93.0911 118.068 92.8423 118.068V118.076Z" fill="white"/>
<path d="M325.527 117.098L313.242 101.562C320.17 100.261 324.236 95.6269 324.236 88.5135C324.236 80.3531 318.864 74.7871 309.378 74.7871H292.243C291.737 74.7871 291.333 75.1874 291.333 75.6878C291.333 78.875 293.945 81.4617 297.164 81.4617H308.624C314.37 81.4617 317.114 84.364 317.114 88.5751C317.114 92.7861 314.432 95.7501 308.624 95.7501H292.235C291.729 95.7501 291.325 96.1504 291.325 96.6508V117.467C291.325 117.798 291.597 118.068 291.932 118.068H297.771C298.105 118.068 298.377 117.798 298.377 117.467V101.932H305.118L315.785 115.712C316.935 117.198 318.716 118.068 320.605 118.068H325.045C325.55 118.068 325.838 117.491 325.519 117.098H325.527Z" fill="white"/>
<path d="M223.956 117.098L211.672 101.562C218.599 100.261 222.666 95.6269 222.666 88.5135C222.666 80.3531 217.293 74.7871 207.808 74.7871H190.672C190.167 74.7871 189.763 75.1874 189.763 75.6878C189.763 78.875 192.375 81.4617 195.594 81.4617H207.054C212.799 81.4617 215.544 84.364 215.544 88.5751C215.544 92.7861 212.862 95.7501 207.054 95.7501H190.665C190.159 95.7501 189.755 96.1504 189.755 96.6508V117.467C189.755 117.798 190.027 118.068 190.361 118.068H196.2C196.535 118.068 196.807 117.798 196.807 117.467V101.932H203.547L214.214 115.712C215.365 117.198 217.146 118.068 219.035 118.068H223.474C223.98 118.068 224.267 117.491 223.948 117.098H223.956Z" fill="white"/>
<path d="M394.551 63H400.545C400.879 63 401.152 63.2694 401.152 63.6005V92.5852C401.152 92.9163 400.879 93.1934 400.537 93.1934H394.543C394.209 93.1934 393.937 92.924 393.937 92.5929V63.6082C393.937 63.2771 394.209 63 394.551 63Z" fill="#5DEB5A"/>
<path d="M408.126 81.4848C404.892 81.4848 402.271 78.8904 402.271 75.6878C402.271 75.1874 402.684 74.7871 403.181 74.7871H412.177C412.511 74.7871 412.791 75.0489 412.791 75.3876V80.8997C412.791 81.2307 412.519 81.5002 412.177 81.5002L408.118 81.4848H408.126Z" fill="#5DEB5A"/>
<path d="M382.912 74.7793C382.578 74.7793 382.298 75.0487 382.298 75.3798V80.8919C382.298 81.2229 382.57 81.4924 382.912 81.4924H397.762V74.7793H382.912Z" fill="#5DEB5A"/>
</g>
<defs>
<clipPath id="clip0_1019_14093">
<rect width="326.744" height="55.814" fill="white" transform="translate(86.0469 63.9531)"/>
</clipPath>
</defs>
</svg>
