<?xml version="1.0" encoding="UTF-8" standalone="no" ?>
<!DOCTYPE svg PUBLIC "-//W3C//DTD SVG 1.1//EN" "http://www.w3.org/Graphics/SVG/1.1/DTD/svg11.dtd">
<svg xmlns="http://www.w3.org/2000/svg" xmlns:xlink="http://www.w3.org/1999/xlink" version="1.1" width="662.4" height="48.9" viewBox="-11.399999999999977 295.2 662.4 48.9" xml:space="preserve">
<desc>Created with Fabric.js 4.6.0</desc>
<defs>
</defs>
<g transform="matrix(1 0 0 1 319.8 319.65)" id="Qa_aw8ICK340gWfbwvDb2"  >
<g style="" vector-effect="non-scaling-stroke"   >
		<g transform="matrix(1 0 0 1 -166.35 0.1)" id="_j3u7bn0gtZVH0gy33rhY"  >
<path style="stroke: none; stroke-width: 1; stroke-dasharray: none; stroke-linecap: butt; stroke-dashoffset: 0; stroke-linejoin: miter; stroke-miterlimit: 4; fill: rgb(177,177,177); fill-rule: evenodd; opacity: 1;" vector-effect="non-scaling-stroke"  transform=" translate(-233.45, -299.75)" d="M 386.6 314.4 C 388.8 313.2 390.8 311.7 392.6 310 L 397.8 315.3 C 396.7 316.5 395.40000000000003 317.7 394.1 318.7 C 392.8 319.7 391.40000000000003 320.59999999999997 389.90000000000003 321.3 C 388.3 322 386.70000000000005 322.6 385.00000000000006 323 C 383.1000000000001 323.4 381.1000000000001 323.6 379.1000000000001 323.6 C 375.9000000000001 323.6 372.7000000000001 323 369.7000000000001 321.8 C 366.9000000000001 320.6 364.4000000000001 318.90000000000003 362.3000000000001 316.7 C 360.20000000000016 314.49999999999994 358.5000000000001 312 357.40000000000015 309.2 C 356.20000000000016 306.3 355.60000000000014 303.09999999999997 355.60000000000014 299.9 L 355.60000000000014 299.79999999999995 C 355.60000000000014 296.59999999999997 356.20000000000016 293.49999999999994 357.40000000000015 290.49999999999994 C 358.50000000000017 287.69999999999993 360.20000000000016 285.09999999999997 362.40000000000015 282.8999999999999 C 364.50000000000017 280.69999999999993 367.10000000000014 278.99999999999994 369.90000000000015 277.7999999999999 C 372.90000000000015 276.4999999999999 376.20000000000016 275.8999999999999 379.50000000000017 275.8999999999999 C 381.40000000000015 275.8999999999999 383.40000000000015 276.0999999999999 385.3000000000002 276.3999999999999 C 386.9000000000002 276.69999999999993 388.50000000000017 277.19999999999993 390.1000000000002 277.8999999999999 C 391.50000000000017 278.49999999999994 392.9000000000002 279.2999999999999 394.1000000000002 280.19999999999993 C 395.3000000000002 281.0999999999999 396.50000000000017 282.0999999999999 397.6000000000002 283.0999999999999 L 392.4000000000002 289.0999999999999 C 390.6000000000002 287.4999999999999 388.7000000000002 286.0999999999999 386.5000000000002 284.9999999999999 C 384.30000000000024 283.89999999999986 381.9000000000002 283.39999999999986 379.4000000000002 283.39999999999986 C 377.3000000000002 283.39999999999986 375.2000000000002 283.79999999999984 373.3000000000002 284.6999999999999 C 371.50000000000017 285.4999999999999 369.8000000000002 286.6999999999999 368.50000000000017 288.1999999999999 C 367.1000000000002 289.6999999999999 366.00000000000017 291.4999999999999 365.3000000000002 293.39999999999986 C 364.50000000000017 295.39999999999986 364.20000000000016 297.59999999999985 364.20000000000016 299.6999999999999 L 364.20000000000016 299.7999999999999 C 364.20000000000016 301.9999999999999 364.60000000000014 304.0999999999999 365.3000000000002 306.1999999999999 C 366.00000000000017 308.09999999999985 367.1000000000002 309.89999999999986 368.50000000000017 311.39999999999986 C 369.90000000000015 312.89999999999986 371.50000000000017 314.09999999999985 373.3000000000002 314.89999999999986 C 375.20000000000016 315.79999999999984 377.3000000000002 316.1999999999999 379.4000000000002 316.1999999999999 C 381.8 316.1 384.3 315.5 386.6 314.4 z M 227 314.4 C 229.2 313.2 231.2 311.7 233 310 L 238.2 315.3 C 237.1 316.5 235.79999999999998 317.7 234.5 318.7 C 233.2 319.7 231.8 320.59999999999997 230.3 321.3 C 228.70000000000002 322 227.10000000000002 322.6 225.4 323 C 223.5 323.4 221.5 323.6 219.5 323.6 C 216.3 323.6 213.1 323 210.1 321.8 C 207.29999999999998 320.6 204.79999999999998 318.90000000000003 202.7 316.7 C 200.6 314.5 198.89999999999998 312 197.79999999999998 309.2 C 196.6 306.3 195.99999999999997 303.09999999999997 195.99999999999997 299.9 L 195.99999999999997 299.79999999999995 C 195.99999999999997 296.59999999999997 196.59999999999997 293.49999999999994 197.79999999999998 290.49999999999994 C 198.89999999999998 287.69999999999993 200.6 285.09999999999997 202.79999999999998 282.8999999999999 C 204.89999999999998 280.69999999999993 207.49999999999997 278.99999999999994 210.29999999999998 277.7999999999999 C 213.29999999999998 276.4999999999999 216.6 275.8999999999999 219.89999999999998 275.8999999999999 C 221.79999999999998 275.8999999999999 223.79999999999998 276.0999999999999 225.7 276.3999999999999 C 227.29999999999998 276.69999999999993 228.89999999999998 277.19999999999993 230.5 277.8999999999999 C 231.9 278.49999999999994 233.3 279.2999999999999 234.5 280.19999999999993 C 235.7 281.0999999999999 236.9 282.0999999999999 238 283.0999999999999 L 232.8 289.0999999999999 C 231 287.4999999999999 229.10000000000002 286.0999999999999 226.9 284.9999999999999 C 224.70000000000002 283.89999999999986 222.3 283.39999999999986 219.8 283.39999999999986 C 217.70000000000002 283.39999999999986 215.60000000000002 283.79999999999984 213.70000000000002 284.6999999999999 C 211.9 285.4999999999999 210.20000000000002 286.6999999999999 208.9 288.1999999999999 C 207.5 289.6999999999999 206.4 291.4999999999999 205.70000000000002 293.39999999999986 C 204.9 295.39999999999986 204.60000000000002 297.59999999999985 204.60000000000002 299.6999999999999 L 204.60000000000002 299.7999999999999 C 204.60000000000002 301.9999999999999 205.00000000000003 304.0999999999999 205.70000000000002 306.1999999999999 C 206.4 308.09999999999985 207.50000000000003 309.89999999999986 208.9 311.39999999999986 C 210.3 312.89999999999986 211.9 314.09999999999985 213.70000000000002 314.89999999999986 C 215.60000000000002 315.79999999999984 217.70000000000002 316.1999999999999 219.8 316.1999999999999 C 222.3 316.1 224.8 315.5 227 314.4 z M 77.2 303 L 77.2 315.3 L 103.6 315.3 L 103.6 322.6 L 69.1 322.6 L 69.1 276.5 L 103.19999999999999 276.5 L 103.19999999999999 283.8 L 77.2 283.8 L 77.2 295.7 L 100.30000000000001 295.7 L 100.30000000000001 303 L 77.2 303 z M 121.2 276.5 L 121.2 315.3 L 145.4 315.3 L 145.4 322.6 L 113.10000000000001 322.6 L 113.10000000000001 276.5 L 121.2 276.5 z M 162 315.3 L 162 303 L 185.1 303 L 185.1 295.7 L 162 295.7 L 162 283.8 L 188.1 283.8 L 188.1 276.5 L 154 276.5 L 154 322.6 L 188.4 322.6 L 188.4 315.3 L 162 315.3 z M 243.3 276.5 L 243.3 284 L 257.90000000000003 284 L 257.90000000000003 322.6 L 266.1 322.6 L 266.1 284 L 280.70000000000005 284 L 280.70000000000005 276.5 L 243.3 276.5 z M 320.3 303.3 C 318.90000000000003 304.1 317.40000000000003 304.8 315.8 305.2 L 328.3 322.7 L 318.7 322.7 L 307.3 306.59999999999997 L 302.5 299.4 L 309.1 299.4 C 311.6 299.5 314 298.79999999999995 316 297.29999999999995 C 316.8 296.59999999999997 317.5 295.79999999999995 318 294.79999999999995 C 318.4 293.79999999999995 318.7 292.69999999999993 318.6 291.69999999999993 L 318.6 291.5999999999999 C 318.70000000000005 290.4999999999999 318.5 289.3999999999999 318 288.3999999999999 C 317.6 287.3999999999999 316.9 286.49999999999994 316.1 285.7999999999999 C 314 284.3999999999999 311.5 283.6999999999999 309 283.7999999999999 L 297.2 283.7999999999999 L 297.2 322.5999999999999 L 289.2 322.5999999999999 L 289.2 276.4999999999999 L 309.8 276.4999999999999 C 312.40000000000003 276.4999999999999 315 276.89999999999986 317.5 277.6999999999999 C 319.6 278.39999999999986 321.5 279.59999999999985 323.1 281.09999999999985 C 324.3 282.39999999999986 325.3 283.89999999999986 325.90000000000003 285.49999999999983 C 326.6 287.29999999999984 326.90000000000003 289.09999999999985 326.90000000000003 290.99999999999983 L 326.90000000000003 291.09999999999985 C 326.90000000000003 292.79999999999984 326.6 294.59999999999985 326.1 296.1999999999999 C 325.6 297.6999999999999 324.8 298.9999999999999 323.8 300.1999999999999 C 322.8 301.5 321.6 302.5 320.3 303.3 z M 337.2 276.5 L 337.2 322.6 L 345.2 322.6 L 345.2 276.5 L 337.2 276.5 z" stroke-linecap="round" />
</g>
		<g transform="matrix(1 0 0 1 186.54 -0.19)" id="uQxjVlHdN_jSS_nmgsRMC"  >
<path style="stroke: none; stroke-width: 1; stroke-dasharray: none; stroke-linecap: butt; stroke-dashoffset: 0; stroke-linejoin: miter; stroke-miterlimit: 4; fill: rgb(177,177,177); fill-rule: evenodd; opacity: 1;" vector-effect="non-scaling-stroke"  transform=" translate(-586.34, -299.46)" d="M 479.2 310 C 477.4 311.7 475.4 313.2 473.2 314.4 C 471 315.5 468.5 316.09999999999997 466 316 C 463.9 316 461.8 315.6 459.9 314.7 C 458.09999999999997 313.9 456.4 312.7 455.09999999999997 311.2 C 453.7 309.7 452.59999999999997 307.9 451.9 306 C 451.2 304 450.79999999999995 301.8 450.79999999999995 299.6 L 450.79999999999995 299.5 C 450.79999999999995 297.3 451.19999999999993 295.2 451.9 293.2 C 452.59999999999997 291.3 453.7 289.5 455.09999999999997 288 C 456.49999999999994 286.5 458.09999999999997 285.3 459.9 284.5 C 461.79999999999995 283.6 463.9 283.2 466 283.2 C 468.4 283.2 470.9 283.7 473 284.8 C 475.1 285.90000000000003 477.1 287.3 478.9 288.90000000000003 L 484.09999999999997 282.90000000000003 C 482.99999999999994 281.8 481.79999999999995 280.90000000000003 480.59999999999997 280.00000000000006 C 479.29999999999995 279.1000000000001 477.99999999999994 278.30000000000007 476.59999999999997 277.70000000000005 C 475.09999999999997 277.00000000000006 473.49999999999994 276.50000000000006 471.79999999999995 276.20000000000005 C 469.9 275.80000000000007 467.99999999999994 275.70000000000005 465.99999999999994 275.70000000000005 C 462.69999999999993 275.70000000000005 459.3999999999999 276.30000000000007 456.3999999999999 277.6 C 453.5999999999999 278.8 450.99999999999994 280.5 448.8999999999999 282.70000000000005 C 446.7999999999999 284.90000000000003 445.0999999999999 287.50000000000006 443.8999999999999 290.30000000000007 C 442.69999999999993 293.20000000000005 442.0999999999999 296.4000000000001 442.19999999999993 299.50000000000006 L 442.19999999999993 299.6000000000001 C 442.19999999999993 302.80000000000007 442.79999999999995 305.9000000000001 443.99999999999994 308.9000000000001 C 445.09999999999997 311.7000000000001 446.79999999999995 314.30000000000007 448.8999999999999 316.4000000000001 C 450.99999999999994 318.6000000000001 453.5999999999999 320.30000000000007 456.2999999999999 321.4000000000001 C 459.2999999999999 322.7000000000001 462.3999999999999 323.30000000000007 465.6999999999999 323.2000000000001 C 467.6999999999999 323.2000000000001 469.6999999999999 323.0000000000001 471.59999999999985 322.6000000000001 C 473.29999999999984 322.2000000000001 474.89999999999986 321.7000000000001 476.49999999999983 320.9000000000001 C 477.99999999999983 320.2000000000001 479.3999999999998 319.30000000000007 480.6999999999998 318.30000000000007 C 481.99999999999983 317.30000000000007 483.29999999999984 316.1000000000001 484.3999999999998 314.9000000000001 L 479.2 310 z M 516.6 276.2 L 509.1 276.2 L 488.8 322.7 L 497.1 322.7 L 501.8 311.59999999999997 L 504.8 304.4 L 512.7 285.9 L 520.7 304.4 L 523.7 311.59999999999997 L 528.4000000000001 322.7 L 537.0000000000001 322.7 L 516.6 276.2 z M 575.8 280.7 C 577.3 282.09999999999997 578.5 283.7 579.3 285.59999999999997 C 580.0999999999999 287.59999999999997 580.5999999999999 289.79999999999995 580.5 291.9 L 580.5 292 C 580.5 294.4 580 296.7 579 298.8 C 578.1 300.7 576.7 302.40000000000003 575 303.7 C 573.2 305.09999999999997 571.3 306.09999999999997 569.1 306.7 C 566.8000000000001 307.4 564.3000000000001 307.7 561.9 307.7 L 552.6999999999999 307.7 L 552.6999999999999 322.5 L 544.6999999999999 322.5 L 544.6999999999999 276.4 L 563 276.4 C 565.5 276.4 567.9 276.7 570.3 277.5 C 572.3 278.3 574.2 279.3 575.8 280.7 z M 571.6 295.5 C 572.1 294.5 572.3000000000001 293.3 572.3000000000001 292.2 L 572.3000000000001 292.09999999999997 C 572.4000000000001 290.9 572.2 289.79999999999995 571.7 288.7 C 571.2 287.59999999999997 570.5 286.7 569.6 285.9 C 567.5 284.4 564.9 283.7 562.3000000000001 283.79999999999995 L 552.8000000000001 283.79999999999995 L 552.8000000000001 300.49999999999994 L 562.3000000000001 300.49999999999994 C 564.9000000000001 300.69999999999993 567.5000000000001 299.79999999999995 569.6 298.19999999999993 C 570.4 297.5 571.1 296.6 571.6 295.5 z M 589.2 276.5 L 589.2 322.6 L 597.3000000000001 322.6 L 597.3000000000001 276.5 L 589.2 276.5 z M 606.2 284 L 606.2 276.5 L 643.6 276.5 L 643.6 284 L 629 284 L 629 322.6 L 620.8 322.6 L 620.8 284 L 606.2 284 z M 669.8 276.2 L 662.3 276.2 L 642 322.6 L 650.3 322.6 L 655.0999999999999 311.5 L 658.0999999999999 304.3 L 665.9999999999999 285.8 L 673.9999999999999 304.3 L 676.9999999999999 311.5 L 681.6999999999999 322.6 L 690.3 322.6 L 669.8 276.2 z M 706.3 276.5 L 706.3 315.3 L 730.5 315.3 L 730.5 322.6 L 698.2 322.6 L 698.2 276.5 L 706.3 276.5 z" stroke-linecap="round" />
</g>
		<g transform="matrix(1 0 0 1 18.7 -0.1)" id="DlCbB2hPyzx-vDEcUwZuo"  >
<path style="stroke: none; stroke-width: 1; stroke-dasharray: none; stroke-linecap: butt; stroke-dashoffset: 0; stroke-linejoin: miter; stroke-miterlimit: 4; fill: rgb(0,187,242); fill-rule: nonzero; opacity: 1;" vector-effect="non-scaling-stroke"  transform=" translate(-418.5, -299.55)" d="M 427 296.9 L 418.5 296.9 L 418.5 275.7 L 410 302.2 L 418.5 302.2 L 418.5 323.4 L 427 296.9 z" stroke-linecap="round" />
</g>
</g>
</g>
</svg>