<?xml version="1.0" encoding="utf-8"?>

<!DOCTYPE svg PUBLIC "-//W3C//DTD SVG 1.1//EN" "http://www.w3.org/Graphics/SVG/1.1/DTD/svg11.dtd">
<svg fill="#ffffff" xmlns="http://www.w3.org/2000/svg" xmlns:xlink="http://www.w3.org/1999/xlink"
    viewBox="0 0 1000 1000">

    <g>
        <g transform="translate(0.000000,512.000000) scale(0.100000,-0.100000)">
            <path
                d="M4815.9,4985.1c-74.8-32.6-207.1-170.7-824.7-853.4c-404.7-448.8-755.6-851.5-778.6-895.6c-51.8-97.8-57.5-268.5-13.4-374c36.4-90.1,128.5-187.9,228.2-239.7c71-38.4,111.2-42.2,523.6-47.9l444.9-7.7v-976.2c0-937.8,1.9-978.1,40.3-1079.7c23-63.3,72.9-141.9,124.7-193.7c189.9-195.6,466-245.5,705.8-126.6c141.9,69,226.3,157.3,297.3,308.8l49.9,105.5l5.8,983.8l5.7,981.9H6003c448.8,0,492.9,5.8,621.4,84.4c189.9,115.1,266.6,360.6,176.4,563.8c-23,49.9-310.7,383.6-774.8,899.5c-632.9,700-751.8,824.7-834.2,863C5071,5036.9,4934.8,5038.8,4815.9,4985.1z" />
            <path
                d="M1427.1,679.6c-362.5-51.8-732.6-178.4-949.3-322.2C326.3,257.7,169,81.3,130.7-30C103.8-110.5,100-275.4,100-1445.3c0-1265.8,1.9-1329.1,38.4-1405.8c105.5-234,385.5-439.2,774.8-569.6c621.4-207.1,1467.1-201.4,2073.1,15.4l182.2,65.2V-3668c0-287.7,5.8-341.4,38.4-414.3c136.2-299.2,525.5-529.3,1120-657.8c168.8-38.4,251.2-42.2,663.6-44.1c517.8,0,646.3,17.3,997.3,128.5c423.8,136.2,709.6,347.1,817,600.3c19.2,47.9,28.8,155.3,30.7,383.6c1.9,174.5,11.5,316.4,21.1,316.4s90.1-24.9,178.3-57.5c701.9-247.4,1716.4-201.4,2328.2,105.5c262.7,132.3,467.9,333.7,517.8,508.2c11.5,38.4,19.2,354.8,19.2,759.5c0,803.6,0,807.4-166.9,985.7c-189.9,205.2-448.8,341.4-840,441.1c-310.7,78.6-567.7,103.6-953.2,90.1c-546.6-17.3-999.2-134.2-1321.4-341.4l-90.1-57.5l-72.9,49.9c-176.4,120.8-466,230.1-784.4,297.3c-249.3,51.8-795.9,72.9-1083.6,40.3c-220.5-26.9-571.5-111.3-713.4-172.6l-92.1-38.4v245.5c0,260.8-23,435.4-71,527.4c-47.9,94-214.8,255.1-347.1,339.4c-237.8,149.6-561.9,257-945.5,314.5C2169.3,716.1,1676.4,716.1,1427.1,679.6z M2382.2,67.9c314.5-51.8,655.9-176.4,684.7-251.2c42.2-111.2-414.3-274.2-895.6-316.4c-437.3-38.4-947.4,32.6-1219.7,170.7c-207.1,105.5-207.1,145.8-3.8,247.4c128.5,65.2,345.2,128.5,542.7,157.3C1686,104.3,2182.7,98.6,2382.2,67.9z M894-956.3c613.7-216.7,1451.8-220.5,2052.1-7.7c74.8,26.9,155.3,51.8,180.3,57.5l42.2,9.6V-1196v-301.1l-84.4-36.4c-349-149.6-935.9-230.1-1394.2-193.7c-310.7,24.9-517.8,65.2-769,149.6l-207.1,67.1v304.9c0,168.8,5.8,304.9,11.5,304.9C731-900.6,807.7-925.6,894-956.3z M5450.7-1159.6c314.5-51.8,655.9-176.4,684.7-251.2c17.2-46-46-97.8-197.5-161.1c-429.6-178.3-1118.1-216.7-1624.4-88.2c-251.2,63.3-454.5,168.8-454.5,235.9c0,72.9,354.8,218.6,650.1,264.6C4741.1-1125,5226.3-1125,5450.7-1159.6z M8519.2-1159.6c99.7-17.2,230.1-44.1,287.7-61.4c157.3-44.1,381.7-151.5,397-189.9c19.2-47.9-63.3-109.3-237.8-176.4c-429.6-164.9-1097-195.6-1584.1-72.9c-251.2,63.3-454.5,168.8-454.5,235.9c0,74.8,347.1,216.7,652.1,264.6C7809.6-1125,8296.7-1125,8519.2-1159.6z M3153.2-2726.4c-30.7-30.7-351-130.4-544.7-168.8c-519.7-107.4-1158.4-78.6-1634,71c-84.4,26.8-178.4,61.4-207.1,74.8l-53.7,28.8v295.4c0,163,3.8,297.3,7.7,297.3c3.8,0,97.8-30.7,209-67.1c316.4-105.5,596.4-147.7,1001.1-147.7c410.4,0,688.5,42.2,1016.4,153.4l211,71l5.7-295.3C3166.6-2576.8,3162.7-2716.8,3153.2-2726.4z M3998.9-2195.2c316.4-105.5,596.4-147.7,1001.1-147.7c404.6,0,684.7,42.2,1001.1,147.7c111.2,36.4,209,67.1,220.5,67.1c11.5,0,15.4-113.1,11.5-301.1l-5.7-303l-211-71c-318.3-107.4-606-151.5-997.3-153.4c-454.5,0-870.7,69.1-1154.5,195.6l-82.5,36.4v297.3c0,164.9,3.8,299.2,7.7,299.2C3793.7-2128,3887.7-2158.7,3998.9-2195.2z M7067.4-2195.2c316.4-105.5,596.5-147.7,1001.1-147.7c404.6,0,684.7,42.2,1001.1,147.7c111.2,36.4,205.2,67.1,209,67.1c3.8,0,7.7-136.2,7.7-304.9v-304.9l-205.2-67.1c-630.9-209-1394.2-209-2023.3,0l-207.1,67.1v304.9c0,168.8,3.8,304.9,7.7,304.9C6862.2-2128,6956.2-2158.7,7067.4-2195.2z M6233.1-3662.3l-5.7-295.4l-178.4-63.3c-314.5-111.2-506.3-141.9-953.2-153.4c-352.9-9.6-433.4-5.8-642.5,30.7c-241.6,40.3-519.7,117-617.5,166.8l-53.7,28.8v295.4c0,163,5.7,297.3,11.5,297.3c5.7,0,84.4-24.9,172.6-57.5c462.2-163,1143-205.2,1666.6-105.5c161.1,30.7,498.6,130.4,546.6,161.1c15.3,11.5,34.5,13.4,44.1,3.8C6231.2-3361.2,6235.1-3501.2,6233.1-3662.3z" />
        </g>
    </g>
</svg>