<svg id="svg" version="1.1" xmlns="http://www.w3.org/2000/svg" xmlns:xlink="http://www.w3.org/1999/xlink" width="400" height="400" viewBox="0, 0, 400,400"><g id="svgg"><path id="path0" d="M104.600 175.242 C 97.204 175.619,93.485 176.004,93.020 176.442 C 92.811 176.639,91.776 176.800,90.720 176.800 C 89.664 176.800,88.800 176.980,88.800 177.200 C 88.800 177.420,88.001 177.600,87.024 177.600 C 86.047 177.600,85.148 177.760,85.027 177.956 C 84.906 178.151,84.176 178.421,83.404 178.556 C 82.632 178.690,81.370 178.910,80.600 179.044 C 79.830 179.178,79.200 179.448,79.200 179.644 C 79.200 179.840,78.660 180.000,78.000 180.000 C 77.340 180.000,76.800 180.180,76.800 180.400 C 76.800 180.620,76.350 180.800,75.800 180.800 C 75.250 180.800,74.800 180.980,74.800 181.200 C 74.800 181.420,74.260 181.600,73.600 181.600 C 72.940 181.600,72.400 181.780,72.400 182.000 C 72.400 182.220,71.860 182.400,71.200 182.400 C 70.540 182.400,70.000 182.580,70.000 182.800 C 70.000 183.020,69.640 183.200,69.200 183.200 C 68.760 183.200,68.400 183.380,68.400 183.600 C 68.400 183.820,68.040 184.000,67.600 184.000 C 67.160 184.000,66.800 184.180,66.800 184.400 C 66.800 184.620,66.260 184.800,65.600 184.800 C 64.940 184.800,64.400 184.980,64.400 185.200 C 64.400 185.420,64.040 185.600,63.600 185.600 C 63.160 185.600,62.800 185.780,62.800 186.000 C 62.800 186.220,62.440 186.400,62.000 186.400 C 61.560 186.400,61.200 186.546,61.200 186.725 C 61.200 186.904,60.570 187.298,59.800 187.600 C 59.030 187.902,58.400 188.296,58.400 188.475 C 58.400 188.654,58.080 188.800,57.688 188.800 C 57.297 188.800,56.717 189.160,56.400 189.600 C 56.083 190.040,55.503 190.400,55.112 190.400 C 54.720 190.400,54.400 190.580,54.400 190.800 C 54.400 191.020,54.040 191.200,53.600 191.200 C 53.160 191.200,52.800 191.345,52.800 191.523 C 52.800 191.701,52.080 192.164,51.200 192.552 C 50.320 192.940,49.600 193.425,49.600 193.629 C 49.600 193.833,49.364 194.000,49.075 194.000 C 48.787 194.000,48.164 194.360,47.692 194.800 C 47.220 195.240,46.673 195.600,46.476 195.600 C 46.279 195.600,45.554 196.140,44.863 196.800 C 44.172 197.460,43.498 198.000,43.364 198.000 C 43.230 198.000,42.617 198.540,42.000 199.200 C 41.383 199.860,40.695 200.400,40.470 200.400 C 40.102 200.400,37.418 202.929,28.571 211.610 C 27.015 213.137,25.485 214.884,25.171 215.493 C 24.857 216.102,24.105 217.077,23.500 217.660 C 22.895 218.244,22.400 218.892,22.400 219.101 C 22.400 219.310,21.860 220.046,21.200 220.737 C 20.540 221.428,20.000 222.225,20.000 222.508 C 20.000 222.791,19.640 223.283,19.200 223.600 C 18.760 223.917,18.400 224.407,18.400 224.688 C 18.400 224.970,18.250 225.200,18.068 225.200 C 17.885 225.200,17.480 225.695,17.168 226.300 C 16.855 226.905,16.285 227.749,15.900 228.175 C 15.515 228.602,15.200 229.187,15.200 229.475 C 15.200 229.764,15.020 230.000,14.800 230.000 C 14.580 230.000,14.400 230.345,14.400 230.767 C 14.400 231.188,14.265 231.593,14.100 231.667 C 13.724 231.834,12.425 233.964,12.129 234.900 C 12.007 235.285,11.748 235.600,11.553 235.600 C 11.359 235.600,11.200 235.828,11.200 236.106 C 11.200 236.384,10.658 237.724,9.995 239.082 C 9.332 240.441,8.679 242.104,8.545 242.776 C 8.410 243.449,8.143 244.000,7.950 244.000 C 7.758 244.000,7.600 244.450,7.600 245.000 C 7.600 245.550,7.420 246.000,7.200 246.000 C 6.980 246.000,6.800 246.450,6.800 247.000 C 6.800 247.550,6.620 248.000,6.400 248.000 C 6.180 248.000,6.000 248.540,6.000 249.200 C 6.000 249.860,5.820 250.400,5.600 250.400 C 5.380 250.400,5.200 250.940,5.200 251.600 C 5.200 252.260,5.020 252.800,4.800 252.800 C 4.580 252.800,4.400 253.340,4.400 254.000 C 4.400 254.660,4.220 255.200,4.000 255.200 C 3.780 255.200,3.600 255.819,3.600 256.576 C 3.600 257.333,3.420 258.064,3.200 258.200 C 2.980 258.336,2.800 258.977,2.800 259.624 C 2.800 260.271,2.620 260.800,2.400 260.800 C 2.180 260.800,2.000 261.610,2.000 262.600 C 2.000 263.590,1.820 264.400,1.600 264.400 C 1.380 264.400,1.200 265.264,1.200 266.320 C 1.200 267.376,0.975 268.465,0.700 268.740 C -0.027 269.467,-0.027 306.133,0.700 306.860 C 0.975 307.135,1.200 308.224,1.200 309.280 C 1.200 310.336,1.380 311.200,1.600 311.200 C 1.820 311.200,2.000 312.010,2.000 313.000 C 2.000 313.990,2.180 314.800,2.400 314.800 C 2.620 314.800,2.800 315.430,2.800 316.200 C 2.800 316.970,2.980 317.600,3.200 317.600 C 3.420 317.600,3.600 318.320,3.600 319.200 C 3.600 320.080,3.780 320.800,4.000 320.800 C 4.220 320.800,4.400 321.340,4.400 322.000 C 4.400 322.660,4.580 323.200,4.800 323.200 C 5.020 323.200,5.200 323.650,5.200 324.200 C 5.200 324.750,5.380 325.200,5.600 325.200 C 5.820 325.200,6.000 325.740,6.000 326.400 C 6.000 327.060,6.180 327.600,6.400 327.600 C 6.620 327.600,6.800 328.039,6.800 328.576 C 6.800 329.113,6.980 329.664,7.200 329.800 C 7.420 329.936,7.600 330.397,7.600 330.824 C 7.600 331.251,7.757 331.600,7.950 331.600 C 8.142 331.600,8.411 332.157,8.548 332.838 C 8.684 333.518,9.336 335.209,9.998 336.595 C 10.659 337.981,11.200 339.314,11.200 339.557 C 11.200 339.801,11.380 340.000,11.600 340.000 C 11.820 340.000,12.000 340.236,12.000 340.525 C 12.000 340.813,12.360 341.436,12.800 341.908 C 13.240 342.380,13.600 343.044,13.600 343.383 C 13.600 343.722,13.780 344.000,14.000 344.000 C 14.220 344.000,14.400 344.360,14.400 344.800 C 14.400 345.240,14.580 345.600,14.800 345.600 C 15.020 345.600,15.200 345.836,15.200 346.125 C 15.200 346.413,15.560 347.036,16.000 347.508 C 16.440 347.980,16.800 348.604,16.800 348.895 C 16.800 349.186,17.160 349.683,17.600 350.000 C 18.040 350.317,18.400 350.857,18.400 351.200 C 18.400 351.543,18.760 352.083,19.200 352.400 C 19.640 352.717,20.000 353.180,20.000 353.429 C 20.000 353.678,20.540 354.446,21.200 355.137 C 21.860 355.828,22.400 356.510,22.400 356.653 C 22.400 356.796,22.929 357.419,23.575 358.036 C 24.221 358.654,24.966 359.562,25.229 360.054 C 25.935 361.374,26.104 361.558,32.273 367.727 C 38.497 373.951,38.616 374.060,40.025 374.812 C 40.561 375.099,41.477 375.843,42.060 376.467 C 42.644 377.090,43.227 377.600,43.356 377.600 C 43.589 377.600,44.800 378.535,45.816 379.500 C 46.106 379.775,46.496 380.000,46.683 380.000 C 46.870 380.000,47.283 380.360,47.600 380.800 C 47.917 381.240,48.457 381.600,48.800 381.600 C 49.143 381.600,49.683 381.960,50.000 382.400 C 50.317 382.840,50.897 383.200,51.288 383.200 C 51.680 383.200,52.000 383.380,52.000 383.600 C 52.000 383.820,52.236 384.000,52.525 384.000 C 52.813 384.000,53.436 384.360,53.908 384.800 C 54.380 385.240,55.044 385.600,55.383 385.600 C 55.722 385.600,56.000 385.780,56.000 386.000 C 56.000 386.220,56.360 386.400,56.800 386.400 C 57.240 386.400,57.600 386.554,57.600 386.742 C 57.600 387.294,66.606 391.600,67.760 391.600 C 68.112 391.600,68.400 391.780,68.400 392.000 C 68.400 392.220,68.940 392.400,69.600 392.400 C 70.260 392.400,70.800 392.580,70.800 392.800 C 70.800 393.020,71.160 393.200,71.600 393.200 C 72.040 393.200,72.400 393.380,72.400 393.600 C 72.400 393.820,72.940 394.000,73.600 394.000 C 74.260 394.000,74.800 394.180,74.800 394.400 C 74.800 394.620,75.239 394.800,75.776 394.800 C 76.313 394.800,76.864 394.980,77.000 395.200 C 77.136 395.420,77.676 395.600,78.200 395.600 C 78.724 395.600,79.264 395.780,79.400 396.000 C 79.536 396.220,80.267 396.400,81.024 396.400 C 81.781 396.400,82.400 396.580,82.400 396.800 C 82.400 397.020,83.120 397.200,84.000 397.200 C 84.880 397.200,85.600 397.380,85.600 397.600 C 85.600 397.820,86.309 398.000,87.176 398.000 C 88.043 398.000,88.864 398.180,89.000 398.400 C 89.136 398.620,90.101 398.800,91.144 398.800 C 92.187 398.800,93.265 399.025,93.540 399.300 C 93.925 399.685,98.205 399.800,112.200 399.800 C 126.195 399.800,130.475 399.685,130.860 399.300 C 131.135 399.025,132.314 398.800,133.480 398.800 C 134.646 398.800,135.600 398.620,135.600 398.400 C 135.600 398.180,136.320 398.000,137.200 398.000 C 138.080 398.000,138.800 397.820,138.800 397.600 C 138.800 397.380,139.430 397.200,140.200 397.200 C 140.970 397.200,141.600 397.020,141.600 396.800 C 141.600 396.580,142.320 396.400,143.200 396.400 C 144.080 396.400,144.800 396.220,144.800 396.000 C 144.800 395.780,145.340 395.600,146.000 395.600 C 146.660 395.600,147.200 395.420,147.200 395.200 C 147.200 394.980,147.740 394.800,148.400 394.800 C 149.060 394.800,149.600 394.620,149.600 394.400 C 149.600 394.180,150.140 394.000,150.800 394.000 C 151.460 394.000,152.000 393.820,152.000 393.600 C 152.000 393.380,152.360 393.200,152.800 393.200 C 153.240 393.200,153.600 393.020,153.600 392.800 C 153.600 392.580,154.140 392.400,154.800 392.400 C 155.460 392.400,156.000 392.220,156.000 392.000 C 156.000 391.780,156.282 391.600,156.626 391.600 C 157.210 391.600,158.599 391.018,163.300 388.806 C 164.345 388.314,165.200 387.741,165.200 387.532 C 165.200 387.324,165.365 387.255,165.568 387.380 C 165.770 387.505,166.207 387.336,166.539 387.004 C 166.871 386.672,167.426 386.400,167.771 386.400 C 168.117 386.400,168.400 386.220,168.400 386.000 C 168.400 385.780,168.760 385.600,169.200 385.600 C 169.640 385.600,170.000 385.420,170.000 385.200 C 170.000 384.980,170.270 384.800,170.600 384.800 C 170.930 384.800,171.200 384.620,171.200 384.400 C 171.200 384.180,171.470 384.000,171.800 384.000 C 172.130 384.000,172.400 383.820,172.400 383.600 C 172.400 383.380,172.670 383.200,173.000 383.200 C 173.330 383.200,173.600 383.020,173.600 382.800 C 173.600 382.580,173.870 382.400,174.200 382.400 C 174.530 382.400,174.800 382.220,174.800 382.000 C 174.800 381.780,175.030 381.600,175.312 381.600 C 175.593 381.600,176.083 381.240,176.400 380.800 C 176.717 380.360,177.225 380.000,177.528 380.000 C 177.831 380.000,178.583 379.460,179.200 378.800 C 179.817 378.140,180.524 377.600,180.772 377.600 C 181.020 377.600,181.803 377.056,182.511 376.390 C 183.220 375.725,184.880 374.336,186.200 373.303 C 187.520 372.270,189.230 370.740,190.000 369.903 C 190.770 369.066,193.065 366.661,195.100 364.558 C 197.135 362.455,198.800 360.561,198.800 360.351 C 198.800 360.140,199.520 359.283,200.400 358.446 C 201.280 357.609,202.000 356.756,202.000 356.550 C 202.000 356.345,202.360 355.917,202.800 355.600 C 203.240 355.283,203.600 354.831,203.600 354.597 C 203.600 354.362,204.133 353.547,204.784 352.785 C 205.435 352.023,205.975 351.203,205.984 350.962 C 205.993 350.721,206.360 350.198,206.800 349.800 C 207.240 349.402,207.600 348.911,207.600 348.709 C 207.600 348.508,207.870 348.073,208.200 347.743 C 208.530 347.413,208.800 346.796,208.800 346.371 C 208.800 345.947,208.980 345.600,209.200 345.600 C 209.420 345.600,209.600 345.240,209.600 344.800 C 209.600 344.360,209.780 344.000,210.000 344.000 C 210.220 344.000,210.400 343.706,210.400 343.347 C 210.400 342.988,210.718 342.403,211.107 342.047 C 211.496 341.691,212.258 340.500,212.801 339.400 C 213.345 338.300,213.897 337.310,214.029 337.200 C 214.161 337.090,214.518 336.145,214.822 335.100 C 215.126 334.055,215.515 333.200,215.687 333.200 C 215.859 333.200,216.000 332.840,216.000 332.400 C 216.000 331.960,216.147 331.600,216.328 331.600 C 216.508 331.600,216.900 330.700,217.200 329.600 C 217.500 328.500,217.892 327.600,218.072 327.600 C 218.253 327.600,218.400 327.060,218.400 326.400 C 218.400 325.740,218.580 325.200,218.800 325.200 C 219.020 325.200,219.200 324.761,219.200 324.224 C 219.200 323.687,219.380 323.136,219.600 323.000 C 219.820 322.864,220.000 322.313,220.000 321.776 C 220.000 321.239,220.180 320.800,220.400 320.800 C 220.620 320.800,220.800 320.080,220.800 319.200 C 220.800 318.320,220.980 317.600,221.200 317.600 C 221.420 317.600,221.600 316.880,221.600 316.000 C 221.600 315.120,221.780 314.400,222.000 314.400 C 222.220 314.400,222.400 313.680,222.400 312.800 C 222.400 311.920,222.580 311.200,222.800 311.200 C 223.020 311.200,223.200 310.311,223.200 309.224 C 223.200 308.137,223.400 307.124,223.644 306.973 C 223.922 306.801,224.025 305.818,223.919 304.357 C 223.815 302.915,223.913 301.961,224.175 301.873 C 224.448 301.780,224.600 299.716,224.600 296.100 C 224.600 293.005,224.735 290.336,224.900 290.169 C 225.361 289.704,225.257 286.000,224.782 286.000 C 224.499 286.000,224.453 284.224,224.638 280.484 C 224.858 276.042,224.803 274.854,224.355 274.384 C 224.027 274.039,223.773 272.817,223.734 271.400 C 223.653 268.458,223.271 265.667,222.805 264.600 C 222.612 264.160,222.344 263.170,222.208 262.400 C 222.073 261.630,221.861 260.415,221.737 259.700 C 221.614 258.985,221.352 258.400,221.156 258.400 C 220.960 258.400,220.800 257.680,220.800 256.800 C 220.800 255.920,220.620 255.200,220.400 255.200 C 220.180 255.200,220.000 254.660,220.000 254.000 C 220.000 253.340,219.820 252.800,219.600 252.800 C 219.380 252.800,219.200 252.260,219.200 251.600 C 219.200 250.940,219.020 250.400,218.800 250.400 C 218.580 250.400,218.400 249.860,218.400 249.200 C 218.400 248.540,218.220 248.000,218.000 248.000 C 217.780 248.000,217.600 247.561,217.600 247.024 C 217.600 246.487,217.420 245.936,217.200 245.800 C 216.980 245.664,216.800 245.203,216.800 244.776 C 216.800 244.349,216.620 244.000,216.400 244.000 C 216.180 244.000,216.000 243.640,216.000 243.200 C 216.000 242.760,215.820 242.400,215.600 242.400 C 215.380 242.400,215.200 241.950,215.200 241.400 C 215.200 240.850,215.020 240.400,214.800 240.400 C 214.580 240.400,214.400 240.040,214.400 239.600 C 214.400 239.160,214.220 238.800,214.000 238.800 C 213.780 238.800,213.600 238.440,213.600 238.000 C 213.600 237.560,213.420 237.200,213.200 237.200 C 212.980 237.200,212.800 236.840,212.800 236.400 C 212.800 235.960,212.620 235.600,212.400 235.600 C 212.180 235.600,212.000 235.322,212.000 234.983 C 212.000 234.644,211.640 233.980,211.200 233.508 C 210.760 233.036,210.400 232.413,210.400 232.125 C 210.400 231.836,210.220 231.600,210.000 231.600 C 209.780 231.600,209.600 231.240,209.600 230.800 C 209.600 230.360,209.420 230.000,209.200 230.000 C 208.980 230.000,208.800 229.662,208.800 229.249 C 208.800 228.836,208.530 228.274,208.200 228.000 C 207.870 227.726,207.600 227.282,207.600 227.013 C 207.600 226.744,207.240 226.198,206.800 225.800 C 206.360 225.402,206.000 224.874,206.000 224.626 C 206.000 224.379,205.640 223.917,205.200 223.600 C 204.760 223.283,204.400 222.775,204.400 222.472 C 204.400 222.169,203.860 221.417,203.200 220.800 C 202.540 220.183,202.000 219.519,202.000 219.324 C 202.000 219.128,201.280 218.172,200.400 217.200 C 199.520 216.228,198.800 215.282,198.800 215.099 C 198.800 214.842,195.096 211.084,191.891 208.089 C 191.721 207.930,190.161 206.315,188.424 204.500 C 186.686 202.685,185.070 201.200,184.833 201.200 C 184.595 201.200,184.400 201.020,184.400 200.800 C 184.400 200.580,184.202 200.400,183.960 200.400 C 183.719 200.400,183.017 199.860,182.400 199.200 C 181.783 198.540,181.063 198.000,180.800 198.000 C 180.537 198.000,179.817 197.460,179.200 196.800 C 178.583 196.140,177.831 195.600,177.528 195.600 C 177.225 195.600,176.717 195.240,176.400 194.800 C 176.083 194.360,175.621 194.000,175.374 194.000 C 175.126 194.000,174.613 193.656,174.233 193.236 C 173.852 192.816,173.104 192.362,172.571 192.228 C 172.037 192.094,171.600 191.808,171.600 191.592 C 171.600 191.377,171.240 191.200,170.800 191.200 C 170.360 191.200,170.000 191.020,170.000 190.800 C 170.000 190.580,169.680 190.400,169.288 190.400 C 168.897 190.400,168.317 190.040,168.000 189.600 C 167.683 189.160,167.103 188.800,166.712 188.800 C 166.320 188.800,166.000 188.620,166.000 188.400 C 166.000 188.180,165.640 188.000,165.200 188.000 C 164.760 188.000,164.400 187.820,164.400 187.600 C 164.400 187.380,164.040 187.200,163.600 187.200 C 163.160 187.200,162.800 187.020,162.800 186.800 C 162.800 186.580,162.440 186.400,162.000 186.400 C 161.560 186.400,161.200 186.220,161.200 186.000 C 161.200 185.780,160.840 185.600,160.400 185.600 C 159.960 185.600,159.600 185.420,159.600 185.200 C 159.600 184.980,159.150 184.800,158.600 184.800 C 158.050 184.800,157.600 184.620,157.600 184.400 C 157.600 184.180,157.240 184.000,156.800 184.000 C 156.360 184.000,156.000 183.820,156.000 183.600 C 156.000 183.380,155.651 183.200,155.224 183.200 C 154.797 183.200,154.336 183.020,154.200 182.800 C 154.064 182.580,153.513 182.400,152.976 182.400 C 152.439 182.400,152.000 182.220,152.000 182.000 C 152.000 181.780,151.460 181.600,150.800 181.600 C 150.140 181.600,149.600 181.420,149.600 181.200 C 149.600 180.980,149.060 180.800,148.400 180.800 C 147.740 180.800,147.200 180.620,147.200 180.400 C 147.200 180.180,146.660 180.000,146.000 180.000 C 145.340 180.000,144.800 179.820,144.800 179.600 C 144.800 179.380,144.170 179.200,143.400 179.200 C 142.630 179.200,142.000 179.020,142.000 178.800 C 142.000 178.580,141.471 178.400,140.824 178.400 C 140.177 178.400,139.536 178.220,139.400 178.000 C 139.264 177.780,138.353 177.600,137.376 177.600 C 136.399 177.600,135.600 177.420,135.600 177.200 C 135.600 176.980,134.736 176.800,133.680 176.800 C 132.624 176.800,131.589 176.635,131.380 176.432 C 130.787 175.859,125.958 175.505,119.500 175.562 C 115.730 175.596,113.600 175.467,113.600 175.207 C 113.600 174.983,112.838 174.835,111.900 174.878 C 110.965 174.922,107.680 175.085,104.600 175.242 " stroke="none" fill="#04acfc" fill-rule="evenodd"></path><path id="path1" d="M106.500 0.272 C 105.345 0.365,104.400 0.612,104.400 0.821 C 104.400 1.029,103.860 1.200,103.200 1.200 C 102.540 1.200,102.000 1.380,102.000 1.600 C 102.000 1.820,101.460 2.000,100.800 2.000 C 100.140 2.000,99.600 2.180,99.600 2.400 C 99.600 2.620,99.060 2.800,98.400 2.800 C 97.740 2.800,97.200 2.980,97.200 3.200 C 97.200 3.420,96.840 3.600,96.400 3.600 C 95.960 3.600,95.600 3.780,95.600 4.000 C 95.600 4.220,95.150 4.400,94.600 4.400 C 94.050 4.400,93.600 4.580,93.600 4.800 C 93.600 5.020,93.322 5.200,92.983 5.200 C 92.644 5.200,91.980 5.560,91.508 6.000 C 91.036 6.440,90.413 6.800,90.125 6.800 C 89.836 6.800,89.600 6.980,89.600 7.200 C 89.600 7.420,89.240 7.600,88.800 7.600 C 88.360 7.600,88.000 7.753,88.000 7.939 C 88.000 8.126,87.280 8.603,86.400 9.000 C 85.520 9.397,84.800 9.862,84.800 10.034 C 84.800 10.206,84.449 10.458,84.019 10.594 C 82.791 10.984,74.000 19.889,74.000 20.744 C 74.000 20.929,73.460 21.646,72.800 22.337 C 72.140 23.028,71.600 23.825,71.600 24.108 C 71.600 24.391,71.240 24.883,70.800 25.200 C 70.360 25.517,70.000 26.007,70.000 26.288 C 70.000 26.570,69.820 26.800,69.600 26.800 C 69.380 26.800,69.200 27.160,69.200 27.600 C 69.200 28.040,69.020 28.400,68.800 28.400 C 68.580 28.400,68.400 28.760,68.400 29.200 C 68.400 29.640,68.220 30.000,68.000 30.000 C 67.780 30.000,67.600 30.360,67.600 30.800 C 67.600 31.240,67.420 31.600,67.200 31.600 C 66.980 31.600,66.800 31.960,66.800 32.400 C 66.800 32.840,66.620 33.200,66.400 33.200 C 66.180 33.200,66.000 33.740,66.000 34.400 C 66.000 35.060,65.864 35.600,65.697 35.600 C 65.331 35.600,64.400 38.467,64.400 39.594 C 64.400 40.037,64.220 40.400,64.000 40.400 C 63.780 40.400,63.600 41.019,63.600 41.776 C 63.600 42.533,63.420 43.264,63.200 43.400 C 62.980 43.536,62.800 44.526,62.800 45.600 C 62.800 46.674,62.620 47.664,62.400 47.800 C 61.861 48.133,61.861 63.067,62.400 63.400 C 62.620 63.536,62.800 64.526,62.800 65.600 C 62.800 66.674,62.980 67.664,63.200 67.800 C 63.420 67.936,63.600 68.656,63.600 69.400 C 63.600 70.144,63.780 70.864,64.000 71.000 C 64.220 71.136,64.400 71.777,64.400 72.424 C 64.400 73.071,64.580 73.600,64.800 73.600 C 65.020 73.600,65.200 74.140,65.200 74.800 C 65.200 75.460,65.380 76.000,65.600 76.000 C 65.820 76.000,66.000 76.360,66.000 76.800 C 66.000 77.240,66.180 77.600,66.400 77.600 C 66.620 77.600,66.800 77.881,66.800 78.225 C 66.800 79.106,69.208 84.000,69.642 84.000 C 69.839 84.000,70.000 84.360,70.000 84.800 C 70.000 85.240,70.180 85.600,70.400 85.600 C 70.620 85.600,70.800 85.836,70.800 86.125 C 70.800 86.413,71.120 86.998,71.511 87.425 C 71.902 87.851,72.664 88.828,73.205 89.595 C 73.747 90.362,74.462 91.273,74.795 91.620 C 75.128 91.967,76.119 93.157,76.997 94.264 C 77.875 95.372,79.405 96.890,80.397 97.638 C 81.389 98.385,82.677 99.493,83.260 100.098 C 83.844 100.704,84.569 101.200,84.872 101.200 C 85.175 101.200,85.683 101.560,86.000 102.000 C 86.317 102.440,86.857 102.800,87.200 102.800 C 87.543 102.800,88.083 103.160,88.400 103.600 C 88.717 104.040,89.297 104.400,89.688 104.400 C 90.080 104.400,90.400 104.580,90.400 104.800 C 90.400 105.020,90.745 105.200,91.167 105.200 C 91.588 105.200,91.993 105.344,92.067 105.520 C 92.286 106.047,97.286 108.306,98.904 108.609 C 99.732 108.764,100.507 109.050,100.628 109.245 C 100.749 109.440,101.467 109.600,102.224 109.600 C 102.981 109.600,103.600 109.780,103.600 110.000 C 103.600 110.220,104.320 110.400,105.200 110.400 C 106.080 110.400,106.800 110.580,106.800 110.800 C 106.800 111.026,107.933 111.200,109.400 111.200 C 110.867 111.200,112.000 111.374,112.000 111.600 C 112.000 111.851,114.467 112.000,118.600 112.000 C 122.733 112.000,125.200 111.851,125.200 111.600 C 125.200 111.378,126.267 111.200,127.600 111.200 C 128.933 111.200,130.000 111.022,130.000 110.800 C 130.000 110.580,130.720 110.400,131.600 110.400 C 132.480 110.400,133.200 110.220,133.200 110.000 C 133.200 109.780,133.920 109.600,134.800 109.600 C 135.680 109.600,136.400 109.420,136.400 109.200 C 136.400 108.980,136.875 108.800,137.457 108.800 C 138.625 108.800,146.400 105.265,146.400 104.734 C 146.400 104.550,146.760 104.400,147.200 104.400 C 147.640 104.400,148.000 104.220,148.000 104.000 C 148.000 103.780,148.320 103.600,148.712 103.600 C 149.103 103.600,149.683 103.240,150.000 102.800 C 150.317 102.360,150.780 102.000,151.029 102.000 C 151.278 102.000,152.003 101.503,152.641 100.896 C 153.278 100.288,154.430 99.351,155.200 98.813 C 155.970 98.275,157.050 97.322,157.600 96.695 C 158.150 96.067,159.365 94.759,160.300 93.787 C 161.235 92.816,162.000 91.909,162.000 91.771 C 162.000 91.633,162.540 91.017,163.200 90.400 C 163.860 89.783,164.400 89.031,164.400 88.728 C 164.400 88.425,164.760 87.917,165.200 87.600 C 165.640 87.283,166.000 86.743,166.000 86.400 C 166.000 86.057,166.360 85.517,166.800 85.200 C 167.240 84.883,167.600 84.303,167.600 83.912 C 167.600 83.520,167.780 83.200,168.000 83.200 C 168.220 83.200,168.400 82.840,168.400 82.400 C 168.400 81.960,168.580 81.600,168.800 81.600 C 169.020 81.600,169.200 81.240,169.200 80.800 C 169.200 80.360,169.380 80.000,169.600 80.000 C 169.820 80.000,170.000 79.640,170.000 79.200 C 170.000 78.760,170.180 78.400,170.400 78.400 C 170.620 78.400,170.800 77.860,170.800 77.200 C 170.800 76.540,170.980 76.000,171.200 76.000 C 171.420 76.000,171.600 75.651,171.600 75.224 C 171.600 74.797,171.780 74.336,172.000 74.200 C 172.220 74.064,172.400 73.434,172.400 72.800 C 172.400 72.166,172.580 71.536,172.800 71.400 C 173.020 71.264,173.200 70.634,173.200 70.000 C 173.200 69.366,173.380 68.736,173.600 68.600 C 173.820 68.464,174.000 67.499,174.000 66.456 C 174.000 65.413,174.187 64.373,174.416 64.144 C 175.254 63.306,174.470 43.576,173.561 42.620 C 173.363 42.411,173.200 41.646,173.200 40.920 C 173.200 40.194,173.020 39.600,172.800 39.600 C 172.580 39.600,172.400 39.060,172.400 38.400 C 172.400 37.740,172.220 37.200,172.000 37.200 C 171.780 37.200,171.600 36.660,171.600 36.000 C 171.600 35.340,171.420 34.800,171.200 34.800 C 170.980 34.800,170.800 34.440,170.800 34.000 C 170.800 33.560,170.620 33.200,170.400 33.200 C 170.180 33.200,170.000 32.845,170.000 32.411 C 170.000 31.977,169.542 30.852,168.982 29.911 C 168.423 28.970,167.862 27.885,167.736 27.500 C 167.610 27.115,167.348 26.800,167.153 26.800 C 166.959 26.800,166.800 26.530,166.800 26.200 C 166.800 25.870,166.620 25.600,166.400 25.600 C 166.180 25.600,166.000 25.357,166.000 25.059 C 166.000 24.762,165.460 23.954,164.800 23.263 C 164.140 22.572,163.600 21.812,163.600 21.572 C 163.600 21.333,162.880 20.446,162.000 19.600 C 161.120 18.754,160.400 17.921,160.400 17.748 C 160.400 17.307,153.199 10.400,152.740 10.400 C 152.534 10.400,151.880 9.950,151.287 9.400 C 150.693 8.850,149.891 8.400,149.504 8.400 C 149.117 8.400,148.800 8.220,148.800 8.000 C 148.800 7.780,148.564 7.600,148.275 7.600 C 147.987 7.600,147.364 7.240,146.892 6.800 C 146.420 6.360,145.756 6.000,145.417 6.000 C 145.078 6.000,144.800 5.820,144.800 5.600 C 144.800 5.380,144.440 5.200,144.000 5.200 C 143.560 5.200,143.200 5.020,143.200 4.800 C 143.200 4.580,142.840 4.400,142.400 4.400 C 141.960 4.400,141.600 4.220,141.600 4.000 C 141.600 3.780,141.150 3.600,140.600 3.600 C 140.050 3.600,139.600 3.420,139.600 3.200 C 139.600 2.980,139.150 2.800,138.600 2.800 C 138.050 2.800,137.600 2.620,137.600 2.400 C 137.600 2.180,137.060 2.000,136.400 2.000 C 135.740 2.000,135.200 1.820,135.200 1.600 C 135.200 1.380,134.585 1.200,133.833 1.200 C 133.082 1.200,132.393 0.980,132.304 0.712 C 132.141 0.222,111.474 -0.130,106.500 0.272 M303.567 74.963 C 303.475 75.053,302.320 75.235,301.000 75.367 C 299.680 75.499,297.520 75.792,296.200 76.019 C 294.880 76.246,293.124 76.533,292.297 76.658 C 291.471 76.783,290.695 77.045,290.574 77.242 C 290.452 77.439,289.823 77.600,289.176 77.600 C 288.529 77.600,288.000 77.780,288.000 78.000 C 288.000 78.220,287.595 78.403,287.100 78.406 C 286.124 78.413,283.385 79.282,282.941 79.726 C 282.790 79.877,282.247 80.000,281.733 80.000 C 281.220 80.000,280.800 80.180,280.800 80.400 C 280.800 80.620,280.457 80.800,280.038 80.800 C 279.222 80.800,275.888 82.401,275.667 82.900 C 275.593 83.065,275.188 83.200,274.767 83.200 C 274.345 83.200,274.000 83.380,274.000 83.600 C 274.000 83.820,273.640 84.000,273.200 84.000 C 272.760 84.000,272.400 84.180,272.400 84.400 C 272.400 84.620,272.040 84.800,271.600 84.800 C 271.160 84.800,270.800 84.980,270.800 85.200 C 270.800 85.420,270.440 85.600,270.000 85.600 C 269.560 85.600,269.200 85.780,269.200 86.000 C 269.200 86.220,268.964 86.400,268.675 86.400 C 268.387 86.400,267.764 86.760,267.292 87.200 C 266.820 87.640,266.196 88.000,265.905 88.000 C 265.614 88.000,265.117 88.360,264.800 88.800 C 264.483 89.240,263.943 89.600,263.600 89.600 C 263.257 89.600,262.717 89.960,262.400 90.400 C 262.083 90.840,261.626 91.200,261.384 91.200 C 261.142 91.200,260.208 91.830,259.308 92.600 C 258.409 93.370,257.568 94.000,257.439 94.000 C 257.252 94.000,253.653 97.338,250.880 100.085 C 248.439 102.502,244.400 106.917,244.400 107.169 C 244.400 107.341,243.860 108.046,243.200 108.737 C 242.540 109.428,242.000 110.225,242.000 110.508 C 242.000 110.791,241.640 111.283,241.200 111.600 C 240.760 111.917,240.400 112.407,240.400 112.688 C 240.400 112.970,240.220 113.200,240.000 113.200 C 239.780 113.200,239.600 113.470,239.600 113.800 C 239.600 114.130,239.420 114.400,239.200 114.400 C 238.980 114.400,238.800 114.720,238.800 115.112 C 238.800 115.503,238.440 116.083,238.000 116.400 C 237.560 116.717,237.200 117.297,237.200 117.688 C 237.200 118.080,237.020 118.400,236.800 118.400 C 236.580 118.400,236.400 118.760,236.400 119.200 C 236.400 119.640,236.220 120.000,236.000 120.000 C 235.780 120.000,235.600 120.360,235.600 120.800 C 235.600 121.240,235.420 121.600,235.200 121.600 C 234.980 121.600,234.800 121.945,234.800 122.367 C 234.800 122.788,234.665 123.193,234.500 123.267 C 234.068 123.459,232.400 126.772,232.400 127.438 C 232.400 127.747,232.220 128.000,232.000 128.000 C 231.780 128.000,231.600 128.450,231.600 129.000 C 231.600 129.550,231.420 130.000,231.200 130.000 C 230.980 130.000,230.800 130.360,230.800 130.800 C 230.800 131.240,230.620 131.600,230.400 131.600 C 230.180 131.600,230.000 132.140,230.000 132.800 C 230.000 133.460,229.820 134.000,229.600 134.000 C 229.380 134.000,229.200 134.529,229.200 135.176 C 229.200 135.823,229.020 136.464,228.800 136.600 C 228.580 136.736,228.400 137.467,228.400 138.224 C 228.400 138.981,228.220 139.600,228.000 139.600 C 227.780 139.600,227.600 140.320,227.600 141.200 C 227.600 142.080,227.420 142.800,227.200 142.800 C 226.980 142.800,226.800 143.599,226.800 144.576 C 226.800 145.553,226.644 146.449,226.453 146.567 C 225.445 147.190,225.055 169.129,225.947 175.000 C 226.215 176.760,226.534 179.010,226.656 180.000 C 226.778 180.990,227.040 181.971,227.239 182.180 C 227.437 182.389,227.600 183.143,227.600 183.856 C 227.600 184.569,227.780 185.264,228.000 185.400 C 228.220 185.536,228.400 186.166,228.400 186.800 C 228.400 187.434,228.580 188.064,228.800 188.200 C 229.020 188.336,229.200 188.876,229.200 189.400 C 229.200 189.924,229.344 190.442,229.521 190.551 C 229.697 190.660,230.090 191.661,230.393 192.775 C 230.696 193.889,231.092 194.800,231.272 194.800 C 231.453 194.800,231.600 195.239,231.600 195.776 C 231.600 196.313,231.780 196.864,232.000 197.000 C 232.220 197.136,232.400 197.597,232.400 198.024 C 232.400 198.451,232.580 198.800,232.800 198.800 C 233.020 198.800,233.200 199.160,233.200 199.600 C 233.200 200.040,233.380 200.400,233.600 200.400 C 233.820 200.400,234.000 200.760,234.000 201.200 C 234.000 201.640,234.180 202.000,234.400 202.000 C 234.620 202.000,234.800 202.360,234.800 202.800 C 234.800 203.240,234.980 203.600,235.200 203.600 C 235.420 203.600,235.600 203.960,235.600 204.400 C 235.600 204.840,235.780 205.200,236.000 205.200 C 236.220 205.200,236.400 205.470,236.400 205.800 C 236.400 206.130,236.580 206.400,236.800 206.400 C 237.020 206.400,237.200 206.670,237.200 207.000 C 237.200 207.330,237.380 207.600,237.600 207.600 C 237.820 207.600,238.000 207.870,238.000 208.200 C 238.000 208.530,238.180 208.800,238.400 208.800 C 238.620 208.800,238.800 209.036,238.800 209.325 C 238.800 209.613,239.160 210.236,239.600 210.708 C 240.040 211.180,240.400 211.709,240.401 211.883 C 240.401 212.057,240.941 212.830,241.600 213.600 C 242.259 214.370,242.799 215.187,242.799 215.417 C 242.800 215.646,243.386 216.456,244.103 217.217 C 244.820 217.977,245.850 219.230,246.392 220.000 C 246.934 220.770,248.247 222.210,249.311 223.200 C 250.374 224.190,252.425 226.125,253.868 227.500 C 255.312 228.875,256.658 230.000,256.860 230.000 C 257.062 230.000,257.824 230.585,258.555 231.300 C 260.559 233.262,262.540 234.785,263.100 234.793 C 263.375 234.797,263.600 234.950,263.600 235.132 C 263.600 235.315,264.095 235.720,264.700 236.032 C 265.305 236.345,266.149 236.915,266.575 237.300 C 267.002 237.685,267.587 238.000,267.875 238.000 C 268.164 238.000,268.400 238.180,268.400 238.400 C 268.400 238.620,268.760 238.800,269.200 238.800 C 269.640 238.800,270.000 238.980,270.000 239.200 C 270.000 239.420,270.360 239.600,270.800 239.600 C 271.240 239.600,271.600 239.780,271.600 240.000 C 271.600 240.220,271.960 240.400,272.400 240.400 C 272.840 240.400,273.200 240.572,273.200 240.782 C 273.200 240.992,273.830 241.282,274.600 241.426 C 275.370 241.571,276.000 241.849,276.000 242.045 C 276.000 242.240,276.360 242.400,276.800 242.400 C 277.240 242.400,277.600 242.580,277.600 242.800 C 277.600 243.020,277.949 243.200,278.376 243.200 C 278.803 243.200,279.264 243.380,279.400 243.600 C 279.536 243.820,280.087 244.000,280.624 244.000 C 281.161 244.000,281.600 244.180,281.600 244.400 C 281.600 244.620,282.140 244.800,282.800 244.800 C 283.460 244.800,284.000 244.980,284.000 245.200 C 284.000 245.420,284.540 245.600,285.200 245.600 C 285.860 245.600,286.400 245.780,286.400 246.000 C 286.400 246.220,286.940 246.400,287.600 246.400 C 288.260 246.400,288.800 246.580,288.800 246.800 C 288.800 247.020,289.520 247.200,290.400 247.200 C 291.280 247.200,292.000 247.380,292.000 247.600 C 292.000 247.820,292.720 248.000,293.600 248.000 C 294.480 248.000,295.200 248.180,295.200 248.400 C 295.200 248.620,296.179 248.800,297.376 248.800 C 298.573 248.800,299.664 248.980,299.800 249.200 C 299.937 249.421,301.737 249.600,303.824 249.600 C 306.075 249.600,307.600 249.762,307.600 250.000 C 307.600 250.247,309.667 250.400,313.000 250.400 C 316.333 250.400,318.400 250.247,318.400 250.000 C 318.400 249.761,319.933 249.600,322.200 249.600 C 324.467 249.600,326.000 249.439,326.000 249.200 C 326.000 248.978,327.067 248.800,328.400 248.800 C 329.733 248.800,330.800 248.622,330.800 248.400 C 330.800 248.180,331.520 248.000,332.400 248.000 C 333.280 248.000,334.000 247.820,334.000 247.600 C 334.000 247.380,334.720 247.200,335.600 247.200 C 336.480 247.200,337.200 247.020,337.200 246.800 C 337.200 246.580,337.830 246.400,338.600 246.400 C 339.370 246.400,340.000 246.220,340.000 246.000 C 340.000 245.780,340.540 245.600,341.200 245.600 C 341.860 245.600,342.400 245.420,342.400 245.200 C 342.400 244.980,342.760 244.800,343.200 244.800 C 343.640 244.800,344.000 244.620,344.000 244.400 C 344.000 244.180,344.540 244.000,345.200 244.000 C 345.860 244.000,346.400 243.820,346.400 243.600 C 346.400 243.380,346.760 243.200,347.200 243.200 C 347.640 243.200,348.000 243.020,348.000 242.800 C 348.000 242.580,348.349 242.400,348.776 242.400 C 349.203 242.400,349.664 242.220,349.800 242.000 C 349.936 241.780,350.417 241.600,350.869 241.600 C 351.573 241.600,355.404 239.810,356.000 239.202 C 356.110 239.090,356.740 238.730,357.400 238.402 C 358.060 238.074,358.891 237.489,359.247 237.103 C 359.603 236.716,360.188 236.400,360.547 236.400 C 360.906 236.400,361.200 236.250,361.200 236.068 C 361.200 235.885,361.695 235.481,362.300 235.170 C 362.905 234.860,363.691 234.289,364.047 233.903 C 364.403 233.516,364.898 233.200,365.146 233.200 C 365.395 233.200,366.341 232.480,367.248 231.600 C 368.155 230.720,369.058 230.000,369.256 230.000 C 369.725 230.000,380.800 218.923,380.800 218.455 C 380.800 218.258,381.520 217.355,382.400 216.448 C 383.280 215.541,384.000 214.569,384.000 214.288 C 384.000 214.007,384.360 213.517,384.800 213.200 C 385.240 212.883,385.600 212.343,385.600 212.000 C 385.600 211.657,385.960 211.117,386.400 210.800 C 386.840 210.483,387.200 209.969,387.200 209.659 C 387.200 209.348,387.518 208.803,387.907 208.447 C 388.296 208.091,389.058 206.900,389.601 205.800 C 390.145 204.700,390.710 203.710,390.858 203.599 C 391.006 203.489,391.253 202.724,391.408 201.899 C 391.562 201.075,391.849 200.400,392.045 200.400 C 392.240 200.400,392.400 200.040,392.400 199.600 C 392.400 199.160,392.580 198.800,392.800 198.800 C 393.020 198.800,393.200 198.440,393.200 198.000 C 393.200 197.560,393.380 197.200,393.600 197.200 C 393.820 197.200,394.000 196.840,394.000 196.400 C 394.000 195.960,394.180 195.600,394.400 195.600 C 394.620 195.600,394.800 195.060,394.800 194.400 C 394.800 193.740,394.980 193.200,395.200 193.200 C 395.420 193.200,395.600 192.750,395.600 192.200 C 395.600 191.650,395.780 191.200,396.000 191.200 C 396.220 191.200,396.400 190.660,396.400 190.000 C 396.400 189.340,396.580 188.800,396.800 188.800 C 397.020 188.800,397.200 188.271,397.200 187.624 C 397.200 186.977,397.380 186.336,397.600 186.200 C 397.820 186.064,398.000 185.333,398.000 184.576 C 398.000 183.819,398.180 183.200,398.400 183.200 C 398.620 183.200,398.800 182.315,398.800 181.233 C 398.800 180.016,398.990 179.203,399.300 179.100 C 399.689 178.970,399.800 175.288,399.800 162.487 C 399.800 149.863,399.684 145.924,399.300 145.540 C 399.025 145.265,398.800 144.356,398.800 143.520 C 398.800 142.684,398.620 142.000,398.400 142.000 C 398.180 142.000,398.000 141.280,398.000 140.400 C 398.000 139.520,397.820 138.800,397.600 138.800 C 397.380 138.800,397.200 138.080,397.200 137.200 C 397.200 136.320,397.020 135.600,396.800 135.600 C 396.580 135.600,396.400 135.238,396.400 134.795 C 396.400 134.352,396.220 133.632,396.000 133.195 C 395.780 132.758,395.420 132.042,395.200 131.605 C 394.980 131.168,394.800 130.448,394.800 130.005 C 394.800 129.562,394.620 129.200,394.400 129.200 C 394.180 129.200,394.000 128.851,394.000 128.424 C 394.000 127.997,393.820 127.536,393.600 127.400 C 393.380 127.264,393.200 126.803,393.200 126.376 C 393.200 125.949,393.020 125.600,392.800 125.600 C 392.580 125.600,392.400 125.240,392.400 124.800 C 392.400 124.360,392.220 124.000,392.000 124.000 C 391.780 124.000,391.600 123.703,391.600 123.340 C 391.600 122.501,389.538 118.400,389.116 118.400 C 388.942 118.400,388.800 118.040,388.800 117.600 C 388.800 117.160,388.620 116.800,388.400 116.800 C 388.180 116.800,388.000 116.564,388.000 116.275 C 388.000 115.987,387.640 115.364,387.200 114.892 C 386.760 114.420,386.400 113.796,386.400 113.505 C 386.400 113.214,386.040 112.717,385.600 112.400 C 385.160 112.083,384.800 111.593,384.800 111.312 C 384.800 111.030,384.620 110.800,384.400 110.800 C 384.180 110.800,384.000 110.570,384.000 110.288 C 384.000 110.007,383.640 109.517,383.200 109.200 C 382.760 108.883,382.400 108.471,382.400 108.286 C 382.400 108.100,381.500 107.071,380.400 106.000 C 379.300 104.929,378.400 103.853,378.400 103.609 C 378.400 103.365,376.970 101.778,375.222 100.083 C 370.285 95.294,368.926 94.093,367.097 92.904 C 366.164 92.297,365.051 91.485,364.625 91.100 C 364.198 90.715,363.653 90.400,363.413 90.400 C 363.173 90.400,362.717 90.040,362.400 89.600 C 362.083 89.160,361.503 88.800,361.112 88.800 C 360.720 88.800,360.400 88.620,360.400 88.400 C 360.400 88.180,360.158 88.000,359.862 88.000 C 359.566 88.000,358.998 87.640,358.600 87.200 C 358.202 86.760,357.634 86.400,357.338 86.400 C 357.042 86.400,356.800 86.220,356.800 86.000 C 356.800 85.780,356.440 85.600,356.000 85.600 C 355.560 85.600,355.200 85.420,355.200 85.200 C 355.200 84.980,354.840 84.800,354.400 84.800 C 353.960 84.800,353.599 84.665,353.597 84.500 C 353.593 84.141,351.656 83.200,350.920 83.200 C 350.634 83.200,350.400 83.020,350.400 82.800 C 350.400 82.580,350.040 82.400,349.600 82.400 C 349.160 82.400,348.800 82.220,348.800 82.000 C 348.800 81.780,348.440 81.600,348.000 81.600 C 347.560 81.600,347.200 81.420,347.200 81.200 C 347.200 80.980,346.660 80.800,346.000 80.800 C 345.340 80.800,344.800 80.620,344.800 80.400 C 344.800 80.180,344.440 80.000,344.000 80.000 C 343.560 80.000,343.200 79.820,343.200 79.600 C 343.200 79.380,342.660 79.200,342.000 79.200 C 341.340 79.200,340.800 79.040,340.800 78.845 C 340.800 78.650,340.305 78.391,339.700 78.270 C 336.940 77.715,336.146 77.517,335.400 77.197 C 334.960 77.009,333.970 76.745,333.200 76.612 C 332.430 76.479,330.900 76.194,329.800 75.980 C 324.899 75.025,304.318 74.227,303.567 74.963 " stroke="none" fill="#e26082" fill-rule="evenodd"></path><path id="path2" d="" stroke="none" fill="#407c100" fill-rule="evenodd"></path><path id="path3" d="" stroke="none" fill="#407c100" fill-rule="evenodd"></path><path id="path4" d="" stroke="none" fill="#407c100" fill-rule="evenodd"></path></g></svg>