<svg width="472" height="369" viewBox="0 0 472 369" fill="none" xmlns="http://www.w3.org/2000/svg">
<g filter="url(#filter0_d)">
<rect width="464" height="361" transform="translate(4)" fill="white"/>
<circle cx="236" cy="181" r="121" fill="#382B34"/>
<path d="M194.5 99C191.677 99 188.881 99.5561 186.272 100.637C183.664 101.717 181.294 103.301 179.297 105.297C177.301 107.294 175.717 109.664 174.637 112.272C173.556 114.881 173 117.677 173 120.5C173 123.323 173.556 126.119 174.637 128.728C175.717 131.336 177.301 133.706 179.297 135.703C181.294 137.699 183.664 139.283 186.272 140.363C188.881 141.444 191.677 142 194.5 142L194.5 120.5L194.5 99Z" fill="#FA8903"/>
<path opacity="0.8" d="M194.5 142C197.323 142 200.119 141.444 202.728 140.363C205.336 139.283 207.706 137.699 209.703 135.703C211.699 133.706 213.283 131.336 214.363 128.728C215.444 126.119 216 123.323 216 120.5C216 117.677 215.444 114.881 214.363 112.272C213.283 109.664 211.699 107.294 209.703 105.297C207.706 103.301 205.336 101.717 202.728 100.637C200.119 99.5561 197.323 99 194.5 99L194.5 120.5L194.5 142Z" fill="#FEAE25"/>
<path d="M206.508 186C194.175 186 182.348 190.899 173.627 199.62C164.907 208.34 160.008 220.167 160.008 232.5C160.008 244.833 164.907 256.66 173.627 265.38C182.348 274.101 194.175 279 206.508 279L206.508 232.5L206.508 186Z" fill="#05F8FE"/>
<path d="M295.5 116C286.88 116 278.614 119.424 272.519 125.519C266.424 131.614 263 139.88 263 148.5C263 157.12 266.424 165.386 272.519 171.481C278.614 177.576 286.88 181 295.5 181L295.5 148.5L295.5 116Z" fill="#A026A7"/>
<circle opacity="0.8" cx="324" cy="190" r="4" fill="#C4C4C4"/>
<circle opacity="0.8" cx="275" cy="226" r="4" fill="#C4C4C4"/>
<g opacity="0.8">
<ellipse cx="315.5" cy="231.5" rx="3.5" ry="4.5" fill="#C4C4C4"/>
<ellipse cx="315.5" cy="239.5" rx="3.5" ry="4.5" fill="#C4C4C4"/>
<circle cx="320" cy="236" r="4" fill="#C4C4C4"/>
<ellipse cx="311.5" cy="236" rx="4.5" ry="4" fill="#C4C4C4"/>
</g>
<circle opacity="0.8" cx="298" cy="95" r="4" fill="#C4C4C4"/>
<circle cx="232" cy="87" r="4" fill="#C4C4C4"/>
<path d="M311.64 133.562C317.208 125.301 271.973 138.725 269.189 131.841C266.406 124.957 294.938 104.993 314.772 121.171C334.606 137.348 326.255 158 326.255 158C326.255 158 316.164 148.018 298.418 146.641C280.672 145.265 306.073 141.823 311.64 133.562Z" fill="#FF5E79"/>
<circle cx="166" cy="168" r="4" fill="#C4C4C4"/>
<path d="M183.508 252.5C175.508 264.5 240.508 245 244.508 255C248.508 265 207.508 294 179.008 270.5C150.508 247 162.508 217 162.508 217C162.508 217 204.5 196.5 228.5 222.5C252.5 248.5 191.508 240.5 183.508 252.5Z" fill="#17C8CC"/>
<path d="M279.082 162.438C273.609 170.699 318.263 159.116 321 166C323.737 172.884 295.498 190.677 276 174.5C256.502 158.323 264.716 138 264.716 138C264.716 138 274.636 147.982 292.081 149.359C309.526 150.735 284.555 154.177 279.082 162.438Z" fill="#FF5E79"/>
<path opacity="0.4" d="M206.5 279C218.833 279 230.66 274.101 239.38 265.38C248.101 256.66 253 244.833 253 232.5C253 220.167 248.101 208.34 239.38 199.62C230.66 190.899 218.833 186 206.5 186L206.5 232.5L206.5 279Z" fill="#05F8FE"/>
<path opacity="0.4" d="M295.5 181C304.12 181 312.386 177.523 318.481 171.335C324.576 165.146 328 156.752 328 148C328 139.248 324.576 130.854 318.481 124.665C312.386 118.477 304.12 115 295.5 115L295.5 148L295.5 181Z" fill="#FE6675"/>
</g>
<defs>
<filter id="filter0_d" x="0" y="0" width="472" height="369" filterUnits="userSpaceOnUse" color-interpolation-filters="sRGB">
<feFlood flood-opacity="0" result="BackgroundImageFix"/>
<feColorMatrix in="SourceAlpha" type="matrix" values="0 0 0 0 0 0 0 0 0 0 0 0 0 0 0 0 0 0 127 0" result="hardAlpha"/>
<feOffset dy="4"/>
<feGaussianBlur stdDeviation="2"/>
<feComposite in2="hardAlpha" operator="out"/>
<feColorMatrix type="matrix" values="0 0 0 0 0 0 0 0 0 0 0 0 0 0 0 0 0 0 0.25 0"/>
<feBlend mode="normal" in2="BackgroundImageFix" result="effect1_dropShadow"/>
<feBlend mode="normal" in="SourceGraphic" in2="effect1_dropShadow" result="shape"/>
</filter>
</defs>
</svg>
