<?xml version="1.0" encoding="UTF-8" standalone="no" ?>
<!DOCTYPE svg PUBLIC "-//W3C//DTD SVG 1.1//EN" "http://www.w3.org/Graphics/SVG/1.1/DTD/svg11.dtd">
<svg xmlns="http://www.w3.org/2000/svg" xmlns:xlink="http://www.w3.org/1999/xlink" version="1.1" width="449.3" height="147.1" viewBox="26.409999999999997 188.8 449.3 147.1" xml:space="preserve">
<desc>Created with Fabric.js 4.6.0</desc>
<defs>
</defs>
<g transform="matrix(1 0 0 1 251.06 262.35)" id="N7-CFfM2m6PNaOukkg94q"  >
<g style="" vector-effect="non-scaling-stroke"   >
		<g transform="matrix(1 0 0 1 -160.15 -24.1)" id="pcvK3rf0wTf-KWnVb0u6G"  >
<path style="stroke: none; stroke-width: 1; stroke-dasharray: none; stroke-linecap: butt; stroke-dashoffset: 0; stroke-linejoin: miter; stroke-miterlimit: 4; fill: rgb(177,177,177); fill-rule: nonzero; opacity: 1;" vector-effect="non-scaling-stroke"  transform=" translate(-139.7, -178.25)" d="M 75.7 130.3 C 76.2 130.3 76.60000000000001 130.4 77.10000000000001 130.4 C 118.80000000000001 130.4 160.5 130.4 202.2 130.4 C 202.7 130.4 203 130.4 203.7 130.4 C 199.7 141.20000000000002 195.7 151.9 191.79999999999998 162.60000000000002 C 175.49999999999997 154.50000000000003 159.29999999999998 146.3 143 138.20000000000002 C 143 167.60000000000002 143 196.8 143 226.20000000000002 C 140.9 226.20000000000002 138.8 226.20000000000002 136.7 226.20000000000002 C 136.7 197.00000000000003 136.7 167.70000000000002 136.7 138.20000000000002 C 120.29999999999998 146.4 104.19999999999999 154.60000000000002 87.79999999999998 162.70000000000002 C 87.39999999999998 161.70000000000002 87.09999999999998 160.70000000000002 86.69999999999999 159.60000000000002 C 83.1 150.20000000000002 79.69999999999999 140.8 76.19999999999999 131.40000000000003 C 76.1 131.20000000000005 75.89999999999999 130.90000000000003 75.79999999999998 130.70000000000005 C 75.7 130.5 75.7 130.5 75.7 130.3 z M 84.9 136.8 C 87 142.4 89.10000000000001 148 91.2 153.60000000000002 C 102.4 148.00000000000003 113.5 142.40000000000003 124.5 136.90000000000003 C 124.5 136.80000000000004 124.4 136.80000000000004 124.4 136.70000000000005 C 111.3 136.8 98.2 136.8 84.9 136.8 z M 194.4 136.8 C 181.20000000000002 136.8 168 136.8 154.8 136.8 L 154.8 136.9 C 165.9 142.4 177 148 188.10000000000002 153.6 C 190.3 148 192.3 142.5 194.4 136.8 z" stroke-linecap="round" />
</g>
		<g transform="matrix(1 0 0 1 165.44 -45.55)" id="IAiOkF3s6C-hMOZpIO6QF"  >
<path style="stroke: none; stroke-width: 1; stroke-dasharray: none; stroke-linecap: butt; stroke-dashoffset: 0; stroke-linejoin: miter; stroke-miterlimit: 4; fill: rgb(177,177,177); fill-rule: nonzero; opacity: 1;" vector-effect="non-scaling-stroke"  transform=" translate(-465.29, -156.8)" d="M 480.3 129.3 C 480.3 146.60000000000002 480.3 164 480.3 181.4 C 482.3 181.70000000000002 484.40000000000003 181.9 486.40000000000003 182.1 C 486.3 182.79999999999998 486.20000000000005 183.6 486.1 184.29999999999998 C 480.6 184.29999999999998 475.20000000000005 184.29999999999998 469.6 184.29999999999998 C 469.5 183.7 469.3 182.89999999999998 469.20000000000005 182.1 C 470.80000000000007 181.79999999999998 472.30000000000007 181.6 473.90000000000003 181.4 C 473.90000000000003 171.8 473.90000000000003 162.1 473.90000000000003 152.4 C 468.40000000000003 152.4 463.00000000000006 152.4 457.40000000000003 152.4 C 457.40000000000003 162.1 457.40000000000003 171.70000000000002 457.40000000000003 181.3 C 459.6 181.5 461.70000000000005 181.60000000000002 464.1 181.8 C 464 182.70000000000002 463.8 183.5 463.70000000000005 184.3 C 457.70000000000005 184.3 451.90000000000003 184.3 445.90000000000003 184.3 C 445.8 183.70000000000002 445.6 182.9 445.50000000000006 182.10000000000002 C 447.40000000000003 181.8 449.20000000000005 181.60000000000002 451.1000000000001 181.40000000000003 C 451.1000000000001 171.80000000000004 451.1000000000001 162.10000000000002 451.1000000000001 152.40000000000003 C 448.9000000000001 152.40000000000003 446.7000000000001 152.40000000000003 444.30000000000007 152.40000000000003 C 444.00000000000006 151.60000000000002 444.30000000000007 151.00000000000003 444.70000000000005 150.50000000000003 C 445.70000000000005 148.90000000000003 447.00000000000006 148.30000000000004 448.80000000000007 148.60000000000002 C 449.50000000000006 148.70000000000002 450.30000000000007 148.60000000000002 451.00000000000006 148.60000000000002 C 451.1000000000001 147.3 451.20000000000005 146.00000000000003 451.40000000000003 144.70000000000002 C 451.90000000000003 141.8 453.20000000000005 139.3 455.1 137.10000000000002 C 456.90000000000003 134.90000000000003 458.8 132.70000000000002 460.6 130.3 C 461 129.8 461.40000000000003 129.70000000000002 462.1 129.70000000000002 C 466.40000000000003 129.70000000000002 470.6 129.60000000000002 474.8 129.50000000000003 C 475.3 129.50000000000003 475.7 129.40000000000003 476.2 129.30000000000004 C 477.7 129.3 479 129.3 480.3 129.3 z M 474 134 C 473.8 134 473.6 134 473.5 134.1 C 470.8 135.4 468 135.6 465 135.4 C 463.9 135.3 462.7 135.4 461.6 135.4 C 461.20000000000005 135.4 460.90000000000003 135.6 460.6 135.9 C 458.70000000000005 137.70000000000002 457.70000000000005 139.8 457.70000000000005 142.4 C 457.6 144.5 457.70000000000005 146.70000000000002 457.70000000000005 148.9 C 463.20000000000005 148.9 468.6 148.9 474.1 148.9 C 474 143.9 474 139 474 134 z" stroke-linecap="round" />
</g>
		<g transform="matrix(1 0 0 1 -160.2 20.7)" id="45WNV6PC821UNKh49PYp-"  >
<path style="stroke: none; stroke-width: 1; stroke-dasharray: none; stroke-linecap: butt; stroke-dashoffset: 0; stroke-linejoin: miter; stroke-miterlimit: 4; fill: rgb(177,177,177); fill-rule: nonzero; opacity: 1;" vector-effect="non-scaling-stroke"  transform=" translate(-139.65, -223.05)" d="M 155.6 194.5 C 155.6 192.3 155.6 190.2 155.6 188.1 C 162 188.1 168.29999999999998 188.1 174.6 188.1 C 174.6 211.4 174.6 234.7 174.6 258 C 151.29999999999998 258 128.1 258 104.69999999999999 258 C 104.69999999999999 234.7 104.69999999999999 211.4 104.69999999999999 188.1 C 110.99999999999999 188.1 117.29999999999998 188.1 123.69999999999999 188.1 C 123.69999999999999 190.2 123.69999999999999 192.29999999999998 123.69999999999999 194.4 C 119.39999999999999 194.4 115.29999999999998 194.4 110.99999999999999 194.4 C 110.99999999999999 213.5 110.99999999999999 232.60000000000002 110.99999999999999 251.60000000000002 C 130 251.60000000000002 149.1 251.60000000000002 168.2 251.60000000000002 C 168.2 232.60000000000002 168.2 213.50000000000003 168.2 194.40000000000003 C 164.1 194.5 159.9 194.5 155.6 194.5 z" stroke-linecap="round" />
</g>
		<g transform="matrix(1 0 0 1 -55.85 -44.9)" id="7mp7JGqxu9yeiQHfY5L4E"  >
<path style="stroke: none; stroke-width: 1; stroke-dasharray: none; stroke-linecap: butt; stroke-dashoffset: 0; stroke-linejoin: miter; stroke-miterlimit: 4; fill: rgb(177,177,177); fill-rule: nonzero; opacity: 1;" vector-effect="non-scaling-stroke"  transform=" translate(-244, -157.45)" d="M 218.8 184.5 C 218.70000000000002 183.8 218.5 183 218.4 182.1 C 219.6 181.9 220.8 181.7 222 181.5 C 223.2 181.3 224.4 181.1 225.7 181 C 225.7 180.6 225.7 180.3 225.7 180 C 225.7 164.9 225.7 149.9 225.7 134.9 C 225.7 134 225.39999999999998 133.70000000000002 224.6 133.6 C 222.79999999999998 133.4 221 133.1 219.2 132.9 C 218.89999999999998 132.9 218.7 132.8 218.5 132.70000000000002 C 218.6 131.9 218.8 131.10000000000002 218.9 130.50000000000003 C 220.6 130.50000000000003 222.20000000000002 130.50000000000003 223.9 130.50000000000003 C 231 130.50000000000003 238.1 130.40000000000003 245.4 130.40000000000003 C 250.1 130.40000000000003 254.6 131.30000000000004 258.6 133.70000000000005 C 263.8 136.80000000000004 266.90000000000003 141.30000000000004 268.40000000000003 146.90000000000003 C 270.1 153.50000000000003 270.00000000000006 160.00000000000003 268.00000000000006 166.50000000000003 C 265.6000000000001 174.60000000000002 260.00000000000006 179.70000000000002 252.10000000000005 182.40000000000003 C 247.40000000000006 184.10000000000002 242.60000000000005 184.40000000000003 237.70000000000005 184.20000000000005 C 232.30000000000004 184.00000000000006 227.00000000000006 184.20000000000005 221.60000000000005 184.20000000000005 C 220.5 184.5 219.7 184.5 218.8 184.5 z M 232.6 133.9 C 232.6 149.4 232.6 164.9 232.6 180.4 C 235.29999999999998 180.6 238 180.70000000000002 240.6 181 C 247.5 181.8 254.7 178.5 258.3 171.3 C 262.2 163.5 262.6 155.4 260 147.20000000000002 C 257.8 140.4 253.1 135.9 245.9 134.20000000000002 C 241.5 133 237.1 133.8 232.6 133.9 z" stroke-linecap="round" />
</g>
		<g transform="matrix(1 0 0 1 48.89 -27.22)" id="U7S1kKUB8xvPFvu_xy76_"  >
<path style="stroke: none; stroke-width: 1; stroke-dasharray: none; stroke-linecap: butt; stroke-dashoffset: 0; stroke-linejoin: miter; stroke-miterlimit: 4; fill: rgb(177,177,177); fill-rule: nonzero; opacity: 1;" vector-effect="non-scaling-stroke"  transform=" translate(-348.74, -175.13)" d="M 338.7 184.5 C 337.8 183.9 336.9 183.6 335.9 182.9 C 334 181.6 332.9 178.8 333.5 176.6 C 333.6 176.29999999999998 333.9 176.1 334.1 176 C 336.3 174.4 338.5 172.8 340.90000000000003 171.1 C 340.40000000000003 170.9 340.1 170.7 339.6 170.5 C 330.70000000000005 166.6 331.70000000000005 157 336.5 152.6 C 339.6 149.7 343.3 147.9 347.3 147.29999999999998 C 351.2 146.7 354.90000000000003 147.99999999999997 357.90000000000003 150.6 C 358.1 150.79999999999998 358.3 151 358.50000000000006 151.2 C 359.80000000000007 150 361.00000000000006 148.79999999999998 362.30000000000007 147.6 C 362.6000000000001 147.29999999999998 363.1000000000001 147.1 363.50000000000006 147.1 C 364.70000000000005 147 365.90000000000003 147.1 367.1000000000001 147.1 C 367.1000000000001 149 367.1000000000001 150.79999999999998 367.1000000000001 152.7 C 364.7000000000001 152.6 362.30000000000007 152.5 360.50000000000006 154 C 360.70000000000005 155.7 361.00000000000006 157.2 361.00000000000006 158.8 C 360.90000000000003 162.5 359.1000000000001 165.4 356.1000000000001 167.60000000000002 C 353.2000000000001 169.70000000000002 350.00000000000006 170.8 346.6000000000001 171.8 C 346.30000000000007 171.9 346.00000000000006 171.9 345.7000000000001 171.8 C 344.4000000000001 171.4 343.6000000000001 172.10000000000002 342.8000000000001 173.10000000000002 C 342.0000000000001 174.20000000000002 341.0000000000001 175.20000000000002 340.0000000000001 176.3 C 339.2000000000001 177.3 339.3000000000001 178.5 340.4000000000001 179.20000000000002 C 341.0000000000001 179.50000000000003 341.6000000000001 179.70000000000002 342.2000000000001 179.70000000000002 C 346.8000000000001 179.70000000000002 351.5000000000001 179.70000000000002 356.2000000000001 179.70000000000002 C 357.7000000000001 179.70000000000002 359.1000000000001 179.9 360.5000000000001 180.3 C 364.9000000000001 181.4 367.10000000000014 185.3 365.7000000000001 189.60000000000002 C 364.7000000000001 192.8 362.5000000000001 195.10000000000002 359.9000000000001 197.00000000000003 C 356.1000000000001 199.90000000000003 351.9000000000001 201.80000000000004 347.30000000000007 203.00000000000003 C 345.80000000000007 203.40000000000003 344.20000000000005 203.10000000000002 342.70000000000005 203.00000000000003 C 340.20000000000005 202.80000000000004 337.70000000000005 202.30000000000004 335.40000000000003 201.10000000000002 C 331.00000000000006 198.8 330.20000000000005 194.90000000000003 330.40000000000003 191.40000000000003 C 330.40000000000003 191.10000000000002 330.8 190.80000000000004 331.00000000000006 190.60000000000002 C 333.20000000000005 188.8 335.40000000000003 186.90000000000003 337.70000000000005 185.10000000000002 C 338.2 184.8 338.4 184.6 338.7 184.5 z M 347.2 199.1 C 350.4 199.1 353.3 198.2 355.8 196.2 C 357.6 194.7 359 193 359.5 190.6 C 360.1 187.7 359.1 186.2 356.3 185.5 C 355.5 185.3 354.6 185.2 353.90000000000003 185.2 C 349.90000000000003 185.1 346.00000000000006 185.1 342.1 185.1 C 341.8 185.1 341.40000000000003 185.2 341.20000000000005 185.4 C 339.90000000000003 187.20000000000002 338.50000000000006 188.8 337.30000000000007 190.6 C 336.4000000000001 192.1 336.6000000000001 193.7 337.6000000000001 195 C 338.2000000000001 195.8 339.00000000000006 196.5 339.80000000000007 197 C 342 198.6 344.6 199 347.2 199.1 z M 339.4 158.6 C 339.5 159.5 339.59999999999997 160.4 339.79999999999995 161.29999999999998 C 340.69999999999993 166.1 343.99999999999994 168.7 348.69999999999993 168.39999999999998 C 351.49999999999994 168.2 353.8999999999999 166.59999999999997 354.49999999999994 164.09999999999997 C 355.49999999999994 159.99999999999997 354.79999999999995 156.19999999999996 352.09999999999997 152.99999999999997 C 350.2 150.79999999999998 347.59999999999997 150.19999999999996 344.7 150.89999999999998 C 342.09999999999997 151.49999999999997 340.5 153.29999999999998 339.9 155.89999999999998 C 339.6 156.7 339.5 157.7 339.4 158.6 z" stroke-linecap="round" />
</g>
		<g transform="matrix(1 0 0 1 17.55 45.6)" id="Di-m4fAEB80N_KbDYDerW"  >
<path style="stroke: none; stroke-width: 1; stroke-dasharray: none; stroke-linecap: butt; stroke-dashoffset: 0; stroke-linejoin: miter; stroke-miterlimit: 4; fill: rgb(177,177,177); fill-rule: nonzero; opacity: 1;" vector-effect="non-scaling-stroke"  transform=" translate(-317.4, -247.95)" d="M 311.1 257 C 311.1 262 311.1 267 311.1 272.1 C 313.90000000000003 272.40000000000003 316.6 272.70000000000005 319.40000000000003 272.90000000000003 C 319.3 273.6 319.20000000000005 274.3 319.00000000000006 274.90000000000003 C 318.90000000000003 275.1 318.50000000000006 275.40000000000003 318.30000000000007 275.40000000000003 C 315.30000000000007 275.40000000000003 312.4000000000001 275.20000000000005 309.50000000000006 275.20000000000005 C 306.40000000000003 275.20000000000005 303.40000000000003 275.30000000000007 300.30000000000007 275.40000000000003 C 300.00000000000006 275.40000000000003 299.80000000000007 275.40000000000003 299.50000000000006 275.40000000000003 C 299.40000000000003 274.6 299.20000000000005 273.8 299.00000000000006 273.00000000000006 C 300.80000000000007 272.70000000000005 302.70000000000005 272.40000000000003 304.6000000000001 272.20000000000005 C 304.6000000000001 256.80000000000007 304.6000000000001 241.40000000000003 304.6000000000001 226.00000000000006 C 302.80000000000007 226.20000000000005 300.9000000000001 226.40000000000006 299.00000000000006 226.60000000000005 C 298.90000000000003 225.90000000000006 298.70000000000005 225.10000000000005 298.50000000000006 224.20000000000005 C 302.40000000000003 223.40000000000003 306.1000000000001 221.60000000000005 310.20000000000005 221.50000000000006 C 310.30000000000007 223.50000000000006 310.50000000000006 225.60000000000005 310.6 227.70000000000005 C 310.90000000000003 227.50000000000006 311.1 227.40000000000003 311.20000000000005 227.30000000000004 C 314.00000000000006 225.20000000000005 316.80000000000007 223.00000000000003 319.6 220.90000000000003 C 319.90000000000003 220.70000000000005 320.20000000000005 220.50000000000003 320.5 220.50000000000003 C 324.9 220.50000000000003 328.9 221.70000000000002 332 225.00000000000003 C 334.3 227.50000000000003 335.3 230.50000000000003 335.9 233.80000000000004 C 336.5 237.50000000000003 336.5 241.20000000000005 335.5 244.90000000000003 C 334 250.50000000000003 330.5 254.50000000000003 325.1 256.6 C 322.70000000000005 257.5 320 258.20000000000005 317.40000000000003 258.6 C 315.3 259 313.20000000000005 258.20000000000005 311.40000000000003 257.3 C 311.5 257.2 311.3 257.1 311.1 257 C 311.2 257 311.2 257 311.1 257 z M 311.1 240.8 C 311.1 243.8 311.1 246.70000000000002 311.1 249.70000000000002 C 311.1 250.10000000000002 311.3 250.60000000000002 311.5 250.9 C 313.7 254 318.5 255.70000000000002 322.2 254.8 C 325.7 253.9 327.7 251.4 328.9 248.10000000000002 C 330.29999999999995 244.3 330.29999999999995 240.40000000000003 329.79999999999995 236.50000000000003 C 329.4 233.70000000000002 328.79999999999995 231.10000000000002 327.19999999999993 228.80000000000004 C 324.99999999999994 225.50000000000003 321.79999999999995 224.50000000000003 318.19999999999993 226.50000000000003 C 315.79999999999995 227.80000000000004 313.5999999999999 229.50000000000003 311.3999999999999 231.00000000000003 C 311.0999999999999 231.20000000000002 310.99999999999994 231.60000000000002 310.99999999999994 232.00000000000003 C 311 234.9 311.1 237.8 311.1 240.8 z" stroke-linecap="round" />
</g>
		<g transform="matrix(1 0 0 1 -56.48 28.26)" id="WjbVhayEkx7rmGWdkpmpC"  >
<path style="stroke: none; stroke-width: 1; stroke-dasharray: none; stroke-linecap: butt; stroke-dashoffset: 0; stroke-linejoin: miter; stroke-miterlimit: 4; fill: rgb(177,177,177); fill-rule: nonzero; opacity: 1;" vector-effect="non-scaling-stroke"  transform=" translate(-243.37, -230.61)" d="M 266.4 217.9 C 265.2 217.9 264.2 217.9 263.09999999999997 217.9 C 262.49999999999994 217.9 262.4 217.70000000000002 262.2 217.3 C 261.59999999999997 215.5 261 213.60000000000002 260.3 211.8 C 260 211.20000000000002 259.7 210.60000000000002 259.2 210.10000000000002 C 250.5 202.70000000000002 232.5 203.8 228.1 220.10000000000002 C 225.79999999999998 228.8 226.5 237.3 231.5 245.10000000000002 C 235.8 251.8 242 255.3 250.2 254.90000000000003 C 253.5 254.70000000000005 256.4 253.10000000000002 258.9 251.00000000000003 C 259.7 250.30000000000004 260.09999999999997 249.00000000000003 260.59999999999997 247.90000000000003 C 261.4 246.30000000000004 262.29999999999995 244.70000000000005 263.09999999999997 243.10000000000002 C 263.29999999999995 242.8 263.7 242.50000000000003 264.09999999999997 242.50000000000003 C 265.09999999999997 242.40000000000003 266.2 242.50000000000003 267.4 242.50000000000003 C 266.7 245.80000000000004 266 249.20000000000002 265.29999999999995 252.40000000000003 C 265.19999999999993 252.60000000000002 264.9 252.90000000000003 264.69999999999993 253.00000000000003 C 259.19999999999993 255.60000000000002 253.59999999999994 257.70000000000005 247.59999999999994 258.70000000000005 C 244.59999999999994 259.30000000000007 241.79999999999993 258.6 238.89999999999995 257.80000000000007 C 227.79999999999995 254.70000000000007 220.49999999999994 245.80000000000007 219.49999999999994 234.40000000000006 C 218.99999999999994 228.60000000000005 219.59999999999994 222.90000000000006 222.19999999999993 217.70000000000007 C 225.19999999999993 211.80000000000007 229.99999999999994 207.80000000000007 235.99999999999994 205.30000000000007 C 239.99999999999994 203.60000000000008 244.09999999999994 202.30000000000007 248.49999999999994 202.30000000000007 C 254.99999999999994 202.30000000000007 260.69999999999993 204.50000000000006 265.99999999999994 208.10000000000008 C 266.29999999999995 208.30000000000007 266.49999999999994 208.60000000000008 266.49999999999994 208.80000000000007 C 266.5 211.7 266.4 214.8 266.4 217.9 z" stroke-linecap="round" />
</g>
		<g transform="matrix(1 0 0 1 123 -36.35)" id="-rY2eCFqtxWr3H3u-Bk68"  >
<path style="stroke: none; stroke-width: 1; stroke-dasharray: none; stroke-linecap: butt; stroke-dashoffset: 0; stroke-linejoin: miter; stroke-miterlimit: 4; fill: rgb(177,177,177); fill-rule: nonzero; opacity: 1;" vector-effect="non-scaling-stroke"  transform=" translate(-422.85, -166)" d="M 419 182 C 418.9 182.8 418.7 183.6 418.6 184.3 C 413.40000000000003 184.3 408.20000000000005 184.3 402.90000000000003 184.3 C 402.8 183.70000000000002 402.6 182.8 402.50000000000006 182 C 404.40000000000003 181.7 406.30000000000007 181.5 408.20000000000005 181.3 C 408.20000000000005 171.8 408.20000000000005 162.3 408.20000000000005 152.8 C 406.40000000000003 153 404.50000000000006 153.20000000000002 402.70000000000005 153.4 C 402.6 152.6 402.40000000000003 151.8 402.30000000000007 151.1 C 404.30000000000007 150.1 411.9000000000001 148.2 413.9000000000001 148.4 C 414.1000000000001 150.4 414.2000000000001 152.6 414.4000000000001 154.8 C 414.9000000000001 154.5 415.1000000000001 154.3 415.4000000000001 154.20000000000002 C 418.5000000000001 152.10000000000002 421.80000000000007 149.9 424.9000000000001 147.9 C 425.4000000000001 147.6 425.9000000000001 147.4 426.4000000000001 147.4 C 427.7000000000001 147.4 429.0000000000001 147.5 430.30000000000007 147.70000000000002 C 434.4000000000001 148.3 436.30000000000007 150.60000000000002 436.80000000000007 154.8 C 437.00000000000006 156.20000000000002 437.00000000000006 157.70000000000002 437.1000000000001 159.10000000000002 C 437.1000000000001 166.20000000000002 437.1000000000001 173.3 437.1000000000001 180.60000000000002 C 437.1000000000001 181.40000000000003 437.4000000000001 181.70000000000002 438.1000000000001 181.70000000000002 C 439.80000000000007 181.8 441.50000000000006 182.10000000000002 443.4000000000001 182.3 C 443.30000000000007 183.10000000000002 443.1000000000001 183.9 443.0000000000001 184.60000000000002 C 437.7000000000001 184.60000000000002 432.60000000000014 184.60000000000002 427.3000000000001 184.60000000000002 C 427.2000000000001 183.90000000000003 427.0000000000001 183.10000000000002 426.90000000000015 182.3 C 428.3000000000001 182 429.60000000000014 181.8 431.00000000000017 181.60000000000002 C 431.00000000000017 181.20000000000002 431.00000000000017 181.00000000000003 431.00000000000017 180.60000000000002 C 431.00000000000017 173.60000000000002 431.00000000000017 166.50000000000003 431.00000000000017 159.50000000000003 C 431.00000000000017 159.30000000000004 431.00000000000017 159.00000000000003 431.00000000000017 158.90000000000003 C 430.8000000000002 153.60000000000002 427.1000000000002 152.50000000000003 423.50000000000017 153.50000000000003 C 422.3000000000002 153.90000000000003 421.20000000000016 154.40000000000003 420.1000000000002 155.10000000000002 C 418.4000000000002 156.00000000000003 416.9000000000002 157.10000000000002 415.2000000000002 158.20000000000002 C 414.9000000000002 158.4 414.7000000000002 158.8 414.7000000000002 159.10000000000002 C 414.7000000000002 166.40000000000003 414.7000000000002 173.70000000000002 414.7000000000002 181.10000000000002 C 414.7000000000002 181.70000000000002 414.9000000000002 181.8 415.30000000000024 181.8 C 416.4 181.6 417.6 181.9 419 182 z" stroke-linecap="round" />
</g>
		<g transform="matrix(1 0 0 1 203.85 -26.9)" id="rOyp3tRdC4JZU9fgiNd35"  >
<path style="stroke: none; stroke-width: 1; stroke-dasharray: none; stroke-linecap: butt; stroke-dashoffset: 0; stroke-linejoin: miter; stroke-miterlimit: 4; fill: rgb(177,177,177); fill-rule: nonzero; opacity: 1;" vector-effect="non-scaling-stroke"  transform=" translate(-503.7, -175.45)" d="M 513.6 151.5 C 512.4 151.2 511.3 150.9 510.1 150.7 C 510.20000000000005 149.89999999999998 510.3 149.1 510.5 148.39999999999998 C 514.8 148.39999999999998 519.2 148.39999999999998 523.6 148.39999999999998 C 523.7 148.99999999999997 523.9 149.89999999999998 524 150.7 C 522.6 150.89999999999998 521.3 151.2 519.9 151.29999999999998 C 519.1999999999999 151.39999999999998 518.8 151.7 518.5 152.39999999999998 C 514.6 162.49999999999997 510.8 172.7 506.8 182.59999999999997 C 504.1 189.09999999999997 501.2 195.49999999999997 498.3 201.89999999999998 C 498.2 202.09999999999997 497.8 202.49999999999997 497.7 202.49999999999997 C 495.09999999999997 202.49999999999997 492.4 202.49999999999997 489.7 202.49999999999997 C 489.7 200.19999999999996 489.7 197.99999999999997 489.7 195.59999999999997 C 490.9 195.59999999999997 492.09999999999997 195.49999999999997 493.3 195.59999999999997 C 495 195.79999999999995 495.90000000000003 195.09999999999997 496.7 193.79999999999995 C 498.59999999999997 190.69999999999996 500.5 187.59999999999997 502.4 184.59999999999997 C 502.5 184.39999999999998 502.7 184.09999999999997 502.9 183.89999999999998 C 502.29999999999995 184.09999999999997 501.9 184.2 501.2 184.29999999999998 C 500.4 182.29999999999998 499.59999999999997 180.2 498.8 178.1 C 495.5 169.6 492.2 161.1 488.90000000000003 152.5 C 488.6 151.8 488.3 151.5 487.50000000000006 151.5 C 486.1000000000001 151.3 484.80000000000007 151.1 483.40000000000003 150.9 C 483.50000000000006 150.1 483.70000000000005 149.3 483.8 148.6 C 489.3 148.6 494.6 148.6 500.2 148.6 C 500.3 149.2 500.5 150.1 500.59999999999997 150.9 C 498.79999999999995 151.20000000000002 497.09999999999997 151.5 495.2 151.70000000000002 C 496.4 155.00000000000003 497.5 158.3 498.7 161.4 C 500.09999999999997 165.20000000000002 501.4 169 502.8 172.70000000000002 C 503.40000000000003 174.50000000000003 503.8 176.3 503.90000000000003 178.20000000000002 C 503.90000000000003 178.60000000000002 504.00000000000006 178.9 504.3 179.3 C 507.4 170 510.5 160.9 513.6 151.5 z" stroke-linecap="round" />
</g>
		<g transform="matrix(1 0 0 1 84.48 -35.86)" id="ZI8bqde1j7TkAC8mrpqS6"  >
<path style="stroke: none; stroke-width: 1; stroke-dasharray: none; stroke-linecap: butt; stroke-dashoffset: 0; stroke-linejoin: miter; stroke-miterlimit: 4; fill: rgb(177,177,177); fill-rule: nonzero; opacity: 1;" vector-effect="non-scaling-stroke"  transform=" translate(-384.33, -166.49)" d="M 366.5 167.1 C 366.6 162.29999999999998 367.7 157.79999999999998 371 154.1 C 373.9 150.9 377.6 149.29999999999998 381.6 148 C 389.20000000000005 145.7 397.70000000000005 150 400.6 157.8 C 402.70000000000005 163.3 402.70000000000005 169 400.40000000000003 174.4 C 398.1 180 393.50000000000006 182.9 387.8 184.8 C 378.3 187.9 368.3 181.60000000000002 366.6 170.9 C 366.7 169.6 366.6 168.3 366.5 167.1 z M 395.8 166.3 C 395.7 165.70000000000002 395.7 164.4 395.5 163.20000000000002 C 394.9 159.50000000000003 393.6 156.20000000000002 390.6 153.60000000000002 C 386.3 149.8 378.20000000000005 149.00000000000003 374.8 157.00000000000003 C 372.90000000000003 161.50000000000003 372.5 166.20000000000002 373.6 170.90000000000003 C 374.40000000000003 174.50000000000003 376.1 177.60000000000002 379.1 179.90000000000003 C 383.40000000000003 183.10000000000002 390.20000000000005 183.30000000000004 393.5 176.80000000000004 C 395.2 173.6 395.7 170.3 395.8 166.3 z" stroke-linecap="round" />
</g>
		<g transform="matrix(1 0 0 1 -14.28 37.23)" id="vuJezD5SUyYPksoEmzkik"  >
<path style="stroke: none; stroke-width: 1; stroke-dasharray: none; stroke-linecap: butt; stroke-dashoffset: 0; stroke-linejoin: miter; stroke-miterlimit: 4; fill: rgb(177,177,177); fill-rule: nonzero; opacity: 1;" vector-effect="non-scaling-stroke"  transform=" translate(-285.57, -239.58)" d="M 301 253.5 C 301.1 254.3 301.2 255.1 301.3 256 C 298.3 256.6 295.40000000000003 257.1 292.40000000000003 257.8 C 291.70000000000005 255.9 290.90000000000003 254 290.1 252 C 289.8 252.2 289.5 252.4 289.3 252.6 C 286.7 254.5 284 256.5 281.40000000000003 258.3 C 281.00000000000006 258.6 280.50000000000006 258.8 280.00000000000006 258.8 C 277.50000000000006 258.7 275.1000000000001 258.1 273.20000000000005 256.5 C 269.80000000000007 253.8 268.90000000000003 248.6 270.90000000000003 244.5 C 271.6 243 272.70000000000005 242 274.3 241.5 C 279.1 240 283.90000000000003 238.3 288.7 236.7 C 289.3 236.5 289.59999999999997 236.2 289.5 235.5 C 289.4 233.4 289.6 231.2 289.3 229 C 288.90000000000003 225.8 287.3 224.6 284 224.9 C 282.2 225.1 280.4 225.6 278.5 226.1 C 278.1 226.2 277.8 226.7 277.7 227 C 277.2 228.6 276.9 230.1 276.5 231.8 C 274.7 231.8 272.8 231.8 270.9 231.8 C 270.9 230 270.9 228.4 270.9 226.70000000000002 C 270.9 226.50000000000003 271.2 226.20000000000002 271.4 226.10000000000002 C 275.59999999999997 224.3 279.59999999999997 222.3 283.79999999999995 220.50000000000003 C 283.99999999999994 220.40000000000003 284.29999999999995 220.30000000000004 284.4 220.40000000000003 C 286 220.50000000000003 287.5 220.50000000000003 289 220.80000000000004 C 293 221.50000000000003 294.8 223.50000000000003 295.3 227.50000000000003 C 295.5 229.30000000000004 295.7 231.10000000000002 295.7 233.00000000000003 C 295.7 238.20000000000002 295.7 243.40000000000003 295.7 248.60000000000002 C 295.7 250.20000000000002 295.9 251.70000000000002 296.7 253.00000000000003 C 296.9 253.30000000000004 297.3 253.60000000000002 297.7 253.60000000000002 C 298.7 253.5 299.8 253.5 301 253.5 z M 289.5 239.2 C 289 239.39999999999998 288.8 239.5 288.5 239.6 C 285.2 241 281.8 242.5 278.4 243.79999999999998 C 277.2 244.29999999999998 276.59999999999997 245.1 276.2 246.29999999999998 C 275.7 247.7 275.8 249.1 276.2 250.39999999999998 C 276.8 252.39999999999998 278.2 253.59999999999997 280.4 253.49999999999997 C 281.59999999999997 253.39999999999998 282.9 253.19999999999996 283.9 252.69999999999996 C 285.7 251.69999999999996 287.5 250.39999999999995 289.29999999999995 249.19999999999996 C 289.49999999999994 249.09999999999997 289.69999999999993 248.79999999999995 289.69999999999993 248.59999999999997 C 289.5 245.4 289.5 242.3 289.5 239.2 z" stroke-linecap="round" />
</g>
		<g transform="matrix(1 0 0 1 96.4 37.24)" id="npyZ4TFMCoaMQtRB0lBj_"  >
<path style="stroke: none; stroke-width: 1; stroke-dasharray: none; stroke-linecap: butt; stroke-dashoffset: 0; stroke-linejoin: miter; stroke-miterlimit: 4; fill: rgb(177,177,177); fill-rule: nonzero; opacity: 1;" vector-effect="non-scaling-stroke"  transform=" translate(-396.25, -239.59)" d="M 411.6 253.5 C 410.5 253.5 409.5 253.4 408.5 253.5 C 407.9 253.5 407.6 253.2 407.3 252.8 C 406.6 251.3 406.40000000000003 249.70000000000002 406.40000000000003 248 C 406.40000000000003 242.6 406.40000000000003 237.2 406.40000000000003 231.8 C 406.40000000000003 229.9 406.1 227.8 405.8 225.9 C 405.40000000000003 224.1 404.5 222.5 402.7 221.6 C 400.2 220.4 397.59999999999997 220.29999999999998 394.9 220.4 C 394.7 220.4 394.59999999999997 220.5 394.4 220.6 C 390.29999999999995 222.4 386.2 224.29999999999998 382.09999999999997 226.1 C 381.9 226.2 381.59999999999997 226.5 381.49999999999994 226.7 C 381.49999999999994 228.39999999999998 381.49999999999994 230 381.49999999999994 231.79999999999998 C 383.29999999999995 231.79999999999998 384.99999999999994 231.79999999999998 386.79999999999995 231.79999999999998 C 386.99999999999994 231.79999999999998 387.29999999999995 231.39999999999998 387.4 231.2 C 387.79999999999995 229.79999999999998 388.09999999999997 228.29999999999998 388.5 226.89999999999998 C 388.6 226.59999999999997 388.9 226.2 389.1 226.2 C 391.20000000000005 225.7 393.40000000000003 225.1 395.6 224.89999999999998 C 398.40000000000003 224.7 399.90000000000003 226.09999999999997 400.1 228.89999999999998 C 400.3 231.09999999999997 400.20000000000005 233.29999999999998 400.3 235.59999999999997 C 400.3 236.19999999999996 400 236.39999999999998 399.5 236.59999999999997 C 394.6 238.29999999999995 389.8 239.89999999999998 384.9 241.49999999999997 C 383.2 242.09999999999997 382.2 242.99999999999997 381.59999999999997 244.49999999999997 C 379.79999999999995 248.29999999999998 380.2 252.69999999999996 382.9 255.59999999999997 C 385.09999999999997 257.99999999999994 388.09999999999997 258.7 391.2 258.79999999999995 C 391.5 258.79999999999995 391.8 258.59999999999997 392.09999999999997 258.4 C 393.99999999999994 257 395.99999999999994 255.59999999999997 397.9 254.09999999999997 C 398.79999999999995 253.49999999999997 399.7 252.69999999999996 400.79999999999995 251.99999999999997 C 401.59999999999997 253.99999999999997 402.4 255.89999999999998 403.09999999999997 257.79999999999995 C 406.09999999999997 257.19999999999993 408.99999999999994 256.69999999999993 411.99999999999994 256.09999999999997 C 411.8 255.1 411.7 254.3 411.6 253.5 z M 400.2 248.4 C 400.2 248.6 400 248.9 399.8 249 C 398.1 250.2 396.5 251.4 394.7 252.4 C 393.09999999999997 253.3 391.5 253.8 389.59999999999997 253.20000000000002 C 388.29999999999995 252.8 387.49999999999994 252.00000000000003 386.9 250.8 C 386.29999999999995 249.10000000000002 386.29999999999995 247.4 386.79999999999995 245.70000000000002 C 387.19999999999993 244.70000000000002 387.69999999999993 244.00000000000003 388.79999999999995 243.60000000000002 C 392.19999999999993 242.20000000000002 395.59999999999997 240.70000000000002 399.19999999999993 239.3 C 399.49999999999994 239.20000000000002 399.79999999999995 239.10000000000002 400.0999999999999 238.9 C 400.3 242.3 400.3 245.4 400.2 248.4 z" stroke-linecap="round" />
</g>
		<g transform="matrix(1 0 0 1 15.74 -35.83)" id="U2mnpFakzRa4oMwRND1ZE"  >
<path style="stroke: none; stroke-width: 1; stroke-dasharray: none; stroke-linecap: butt; stroke-dashoffset: 0; stroke-linejoin: miter; stroke-miterlimit: 4; fill: rgb(177,177,177); fill-rule: nonzero; opacity: 1;" vector-effect="non-scaling-stroke"  transform=" translate(-315.59, -166.52)" d="M 300.9 158.7 C 300.9 156.89999999999998 300.9 155.29999999999998 300.9 153.7 C 300.9 153.5 301.2 153.1 301.5 153.1 C 305.6 151.29999999999998 309.6 149.2 313.8 147.6 C 314.90000000000003 147.1 316.40000000000003 147.5 317.7 147.5 C 318.3 147.5 318.8 147.6 319.4 147.8 C 323.4 148.60000000000002 325.29999999999995 150.9 325.5 155.4 C 325.7 161.4 325.7 167.4 325.8 173.5 C 325.8 174.8 325.90000000000003 176.2 326 177.5 C 326 177.9 326.1 178.1 326.2 178.5 C 326.8 180.5 326.9 180.7 329.09999999999997 180.7 C 329.7 180.7 330.4 180.7 331.09999999999997 180.7 C 331.2 181.5 331.29999999999995 182.29999999999998 331.4 183.1 C 328.4 183.7 325.5 184.2 322.5 184.79999999999998 C 321.8 182.89999999999998 321 180.99999999999997 320.2 178.99999999999997 C 319.8 179.29999999999998 319.59999999999997 179.49999999999997 319.3 179.59999999999997 C 316.7 181.39999999999998 314.1 183.39999999999998 311.5 185.19999999999996 C 311.2 185.39999999999995 310.9 185.69999999999996 310.6 185.69999999999996 C 307 185.69999999999996 303.70000000000005 184.69999999999996 301.5 181.49999999999997 C 299.3 178.29999999999998 299.3 174.69999999999996 301 171.09999999999997 C 301.6 169.59999999999997 302.7 168.79999999999995 304.2 168.19999999999996 C 309.09999999999997 166.69999999999996 313.9 164.99999999999997 318.7 163.39999999999995 C 319.4 163.09999999999994 319.7 162.79999999999995 319.59999999999997 162.09999999999994 C 319.49999999999994 160.09999999999994 319.49999999999994 157.99999999999994 319.4 156.09999999999994 C 319.2 152.99999999999994 317.59999999999997 151.49999999999994 314.5 151.79999999999993 C 312.5 151.99999999999991 310.5 152.49999999999991 308.5 152.99999999999991 C 308.2 153.0999999999999 307.9 153.5999999999999 307.8 153.79999999999993 C 307.40000000000003 155.19999999999993 307.1 156.69999999999993 306.7 158.09999999999994 C 306.59999999999997 158.39999999999995 306.2 158.69999999999993 306.09999999999997 158.69999999999993 C 304.4 158.7 302.7 158.7 300.9 158.7 z M 319.6 166.1 C 319.1 166.29999999999998 318.8 166.4 318.5 166.6 C 315.1 168 311.7 169.5 308.2 170.9 C 307.4 171.3 306.7 171.70000000000002 306.4 172.6 C 305.59999999999997 174.5 305.59999999999997 176.6 306.5 178.4 C 307.1 179.5 308 180.1 309.1 180.4 C 311 180.9 312.70000000000005 180.3 314.40000000000003 179.3 C 316.00000000000006 178.3 317.50000000000006 177.20000000000002 319.1 176.20000000000002 C 319.3 176.00000000000003 319.6 175.70000000000002 319.6 175.50000000000003 C 319.6 172.3 319.6 169.3 319.6 166.1 z" stroke-linecap="round" />
</g>
		<g transform="matrix(1 0 0 1 122.55 27.6)" id="nYpJYJef1W8iKD0gGYzGT"  >
<path style="stroke: none; stroke-width: 1; stroke-dasharray: none; stroke-linecap: butt; stroke-dashoffset: 0; stroke-linejoin: miter; stroke-miterlimit: 4; fill: rgb(177,177,177); fill-rule: nonzero; opacity: 1;" vector-effect="non-scaling-stroke"  transform=" translate(-422.4, -229.95)" d="M 425.4 254.4 C 427.5 254.70000000000002 429.5 254.9 431.59999999999997 255.1 C 431.49999999999994 255.79999999999998 431.49999999999994 256.5 431.29999999999995 257 C 431.19999999999993 257.3 430.69999999999993 257.5 430.4 257.5 C 428.2 257.5 426.09999999999997 257.3 423.79999999999995 257.3 C 420.9 257.3 417.99999999999994 257.40000000000003 415.09999999999997 257.5 C 414.7 257.5 414.4 257.5 413.9 257.5 C 413.79999999999995 256.7 413.59999999999997 256 413.5 255.1 C 415.3 254.79999999999998 417.2 254.6 419.1 254.4 C 419.1 238.8 419.1 223.1 419.1 207.5 C 417.3 207.5 415.5 207.5 413.6 207.5 C 413.5 206.8 413.3 206 413.20000000000005 205.1 C 417.30000000000007 204.2 421.1 202.29999999999998 425.40000000000003 202.4 C 425.4 219.8 425.4 237.1 425.4 254.4 z" stroke-linecap="round" />
</g>
		<g transform="matrix(1 0 0 1 66.93 32.86)" id="xkUlLOVl0imrHkyHTl2eF"  >
<path style="stroke: none; stroke-width: 1; stroke-dasharray: none; stroke-linecap: butt; stroke-dashoffset: 0; stroke-linejoin: miter; stroke-miterlimit: 4; fill: rgb(177,177,177); fill-rule: nonzero; opacity: 1;" vector-effect="non-scaling-stroke"  transform=" translate(-366.78, -235.21)" d="M 367.6 212 C 367.6 215.3 367.6 218.8 367.6 222.2 C 371.6 222.2 375.6 222.2 379.5 222.2 C 379.5 223.29999999999998 379.5 224.29999999999998 379.5 225.39999999999998 C 375.5 225.39999999999998 371.6 225.39999999999998 367.7 225.39999999999998 C 367.7 225.89999999999998 367.59999999999997 226.09999999999997 367.59999999999997 226.49999999999997 C 367.59999999999997 233.59999999999997 367.59999999999997 240.69999999999996 367.59999999999997 247.89999999999998 C 367.59999999999997 248.49999999999997 367.7 249.2 367.79999999999995 249.79999999999998 C 368.09999999999997 251.79999999999998 369.4 252.99999999999997 371.4 253.1 C 373.2 253.2 374.7 252.7 376.4 252 C 376.9 251.8 377.4 251.5 378 251.4 C 378.4 252.1 378.7 252.9 379.2 253.70000000000002 C 377.3 254.8 375.4 255.9 373.5 256.90000000000003 C 373.1 257.20000000000005 372.7 257.40000000000003 372.3 257.6 C 369.2 259.40000000000003 366.40000000000003 258.5 363.6 257 C 362 256.2 361.8 254.4 361.70000000000005 252.7 C 361.6 251.5 361.6 250.29999999999998 361.6 249.1 C 361.6 241.6 361.6 234.1 361.6 226.6 C 361.6 226.2 361.6 225.79999999999998 361.6 225.29999999999998 C 359.1 225.29999999999998 356.6 225.29999999999998 354.20000000000005 225.29999999999998 C 353.90000000000003 224.49999999999997 354.1 223.89999999999998 354.70000000000005 223.29999999999998 C 355.90000000000003 221.79999999999998 357.40000000000003 221.1 359.30000000000007 221.49999999999997 C 360.1000000000001 221.59999999999997 361.00000000000006 221.49999999999997 362.00000000000006 221.49999999999997 C 362.00000000000006 220.09999999999997 361.90000000000003 218.69999999999996 362.00000000000006 217.39999999999998 C 362.00000000000006 216.79999999999998 362.30000000000007 216.29999999999998 362.6000000000001 215.89999999999998 C 363.50000000000006 214.7 364.6000000000001 213.59999999999997 365.7000000000001 212.49999999999997 C 366.2 211.7 366.2 211.7 367.6 212 z" stroke-linecap="round" />
</g>
		<g transform="matrix(1 0 0 1 -14.5 -36.42)" id="SFMhnzFuGf_U4yM7fUWvQ"  >
<path style="stroke: none; stroke-width: 1; stroke-dasharray: none; stroke-linecap: butt; stroke-dashoffset: 0; stroke-linejoin: miter; stroke-miterlimit: 4; fill: rgb(177,177,177); fill-rule: nonzero; opacity: 1;" vector-effect="non-scaling-stroke"  transform=" translate(-285.35, -165.93)" d="M 283.9 148.2 C 283.9 151.39999999999998 283.9 154.5 283.9 157.7 C 285.2 156.2 286.5 154.79999999999998 287.7 153.39999999999998 C 289.2 151.59999999999997 290.8 149.89999999999998 292.2 148.2 C 292.5 147.89999999999998 293 147.6 293.5 147.6 C 295.2 147.5 296.8 147.6 298.6 147.6 C 298.6 149.9 298.6 152.1 298.6 154.4 C 297.20000000000005 154.4 295.8 154.3 294.5 154.4 C 293.6 154.5 292.7 154.70000000000002 291.9 155 C 288.79999999999995 156.6 286.4 158.9 284.5 161.7 C 284.3 161.89999999999998 284.2 162.29999999999998 284.2 162.39999999999998 C 284.2 168.39999999999998 284.2 174.39999999999998 284.2 180.39999999999998 C 284.2 180.59999999999997 284.2 180.7 284.3 180.99999999999997 C 286.90000000000003 181.29999999999998 289.6 181.49999999999997 292.2 181.69999999999996 C 292.09999999999997 182.59999999999997 291.9 183.49999999999997 291.8 184.29999999999995 C 285.5 184.29999999999995 279.2 184.29999999999995 272.90000000000003 184.29999999999995 C 272.8 183.59999999999997 272.6 182.79999999999995 272.50000000000006 181.99999999999994 C 274.20000000000005 181.79999999999995 275.70000000000005 181.49999999999994 277.40000000000003 181.39999999999995 C 278.00000000000006 181.29999999999995 278.20000000000005 181.09999999999994 278.20000000000005 180.59999999999994 C 278.20000000000005 171.49999999999994 278.20000000000005 162.49999999999994 278.20000000000005 153.39999999999995 C 278.20000000000005 153.19999999999996 278.20000000000005 153.09999999999994 278.1 152.79999999999995 C 276.3 152.99999999999994 274.40000000000003 153.19999999999996 272.5 153.29999999999995 C 272.4 152.49999999999994 272.2 151.69999999999996 272.1 150.79999999999995 C 276.1 150.1 279.7 148.4 283.9 148.2 z" stroke-linecap="round" />
</g>
		<g transform="matrix(1 0 0 1 47.15 37.1)" id="_iWFa78hli9RmIXzlwmZ-"  >
<path style="stroke: none; stroke-width: 1; stroke-dasharray: none; stroke-linecap: butt; stroke-dashoffset: 0; stroke-linejoin: miter; stroke-miterlimit: 4; fill: rgb(177,177,177); fill-rule: nonzero; opacity: 1;" vector-effect="non-scaling-stroke"  transform=" translate(-347, -239.45)" d="M 356.3 255.1 C 356.2 255.9 356 256.7 355.90000000000003 257.4 C 354.1 257.4 352.20000000000005 257.4 350.40000000000003 257.4 C 347.00000000000006 257.4 343.6 257.5 340.00000000000006 257.5 C 338.50000000000006 257.5 338.50000000000006 257.5 338.20000000000005 256.1 C 338.1 255.8 338.1 255.50000000000003 338.1 255.20000000000002 C 339.90000000000003 254.9 341.8 254.70000000000002 343.70000000000005 254.50000000000003 C 343.70000000000005 245.10000000000002 343.70000000000005 235.60000000000002 343.70000000000005 226.10000000000002 C 341.90000000000003 226.20000000000002 340.00000000000006 226.40000000000003 338.1 226.50000000000003 C 338 225.70000000000002 337.8 224.90000000000003 337.70000000000005 224.10000000000002 C 341.80000000000007 223.20000000000002 345.70000000000005 221.3 350.00000000000006 221.40000000000003 C 350.00000000000006 232.50000000000003 350.00000000000006 243.50000000000003 350.00000000000006 254.50000000000003 C 352.2 254.6 354.1 254.8 356.3 255.1 z" stroke-linecap="round" />
</g>
		<g transform="matrix(1 0 0 1 47.1 10.05)" id="ZNaufiWBoklcncGkcQdK2"  >
<path style="stroke: none; stroke-width: 1; stroke-dasharray: none; stroke-linecap: butt; stroke-dashoffset: 0; stroke-linejoin: miter; stroke-miterlimit: 4; fill: rgb(177,177,177); fill-rule: nonzero; opacity: 1;" vector-effect="non-scaling-stroke"  transform=" translate(-346.95, -212.4)" d="M 346 216.4 C 345.8 216.4 345.7 216.5 345.5 216.5 C 343.8 216.6 343.4 216.1 343.1 214.5 C 342.8 212.7 342.90000000000003 211 343.40000000000003 209.2 C 343.50000000000006 208.89999999999998 343.70000000000005 208.6 343.90000000000003 208.6 C 345.90000000000003 208.5 348.1 208 350.1 208.5 C 350.40000000000003 208.6 350.70000000000005 209 350.70000000000005 209.1 C 351.1 211.2 351.1 213.4 350.40000000000003 215.5 C 350.3 215.8 349.90000000000003 216.1 349.8 216.1 C 348.4 216.2 347.2 216.3 346 216.4 z" stroke-linecap="round" />
</g>
</g>
</g>
</svg>