<svg id="svg" version="1.1" xmlns="http://www.w3.org/2000/svg" xmlns:xlink="http://www.w3.org/1999/xlink" width="400"
    height="117.55607115235887" viewBox="0, 0, 400,117.55607115235887">
    <g id="svgg">
        <path id="path0"
            d="M12.220 1.506 C 4.798 3.638,0.194 11.044,2.352 17.378 C 2.661 18.284,2.919 19.100,2.926 19.190 C 2.962 19.657,5.355 22.633,6.300 23.388 L 7.389 24.256 6.158 25.310 C 2.632 28.328,0.833 33.709,1.950 37.896 C 2.087 38.407,2.232 38.964,2.274 39.134 C 2.316 39.304,2.512 39.738,2.711 40.099 C 2.909 40.459,2.984 40.842,2.876 40.949 C 2.769 41.057,2.821 41.145,2.992 41.145 C 3.164 41.145,3.454 41.476,3.639 41.880 C 5.887 46.815,10.733 48.630,22.119 48.802 C 33.299 48.970,37.067 48.113,40.747 44.565 C 41.999 43.358,44.759 39.598,44.394 39.598 C 44.296 39.598,44.389 39.285,44.599 38.902 C 44.810 38.519,45.008 38.049,45.041 37.857 C 45.074 37.666,45.194 37.213,45.309 36.852 C 45.513 36.208,45.445 36.195,41.986 36.195 L 38.454 36.195 37.896 37.434 C 35.925 41.803,32.797 42.828,22.050 42.625 C 14.396 42.480,12.796 42.109,10.532 39.956 C 8.814 38.322,7.864 34.643,8.778 33.165 C 8.904 32.960,8.927 32.792,8.827 32.792 C 8.358 32.792,9.718 30.876,10.968 29.776 C 13.293 27.729,14.521 27.533,25.001 27.533 L 34.029 27.533 34.029 24.459 L 34.029 21.385 24.330 21.288 L 14.630 21.191 12.502 20.107 C 10.233 18.951,9.091 17.509,8.759 15.381 C 8.674 14.833,8.558 14.338,8.502 14.280 C 8.446 14.222,8.593 13.628,8.828 12.961 C 9.064 12.293,9.269 11.645,9.284 11.519 C 9.407 10.488,10.690 9.235,12.569 8.310 L 14.681 7.270 22.886 7.270 C 33.479 7.270,35.492 7.930,37.605 12.100 L 38.371 13.612 41.802 13.612 L 45.233 13.612 45.036 12.761 C 43.830 7.575,39.011 2.824,33.502 1.389 C 30.775 0.678,14.793 0.766,12.220 1.506 M53.519 4.795 L 53.519 8.043 62.336 8.043 L 71.152 8.043 71.152 27.997 L 71.152 47.951 74.560 47.951 L 77.967 47.951 77.885 27.997 L 77.804 8.043 86.543 8.043 L 95.282 8.043 95.282 4.795 L 95.282 1.547 74.401 1.547 L 53.519 1.547 53.519 4.795 M106.110 24.749 L 106.110 47.951 109.513 47.951 L 112.916 47.951 112.916 37.896 L 112.916 27.842 126.991 27.842 L 141.067 27.842 141.067 37.896 L 141.067 47.951 144.470 47.951 L 147.873 47.951 147.873 24.749 L 147.873 1.547 144.470 1.547 L 141.067 1.547 141.067 11.601 L 141.067 21.655 126.991 21.655 L 112.916 21.655 112.916 11.601 L 112.916 1.547 109.513 1.547 L 106.110 1.547 106.110 24.749 M160.642 9.358 C 160.755 17.746,160.751 17.713,161.626 19.048 C 162.769 20.793,164.023 21.671,165.971 22.089 L 166.899 22.289 166.899 24.884 L 166.899 27.479 165.791 27.656 C 164.302 27.894,162.788 28.963,161.651 30.580 L 160.712 31.916 160.615 39.933 L 160.519 47.951 178.790 47.951 L 197.061 47.951 197.061 44.857 L 197.061 41.763 182.212 41.763 L 167.363 41.763 167.363 34.803 L 167.363 27.842 181.284 27.842 L 195.205 27.842 195.205 24.749 L 195.205 21.655 181.284 21.655 L 167.363 21.655 167.363 14.849 L 167.363 8.043 182.212 8.043 L 197.061 8.043 197.061 4.795 L 197.061 1.547 178.799 1.547 L 160.536 1.547 160.642 9.358 M209.745 24.727 L 209.745 47.951 213.148 47.951 L 216.551 47.951 216.551 38.509 L 216.551 29.067 222.649 29.150 L 228.747 29.234 235.874 38.588 L 243.001 47.942 247.100 47.946 C 249.354 47.949,251.199 47.888,251.199 47.812 C 251.199 47.736,248.020 43.514,244.136 38.429 L 237.073 29.184 239.144 28.698 C 244.105 27.534,248.252 24.066,249.231 20.263 C 249.274 20.093,249.422 19.536,249.558 19.026 C 250.993 13.664,248.648 7.043,244.306 4.193 C 240.580 1.748,240.421 1.727,224.207 1.609 L 209.745 1.503 209.745 24.727 M262.026 9.448 C 262.026 19.235,262.625 20.790,266.854 21.974 L 268.213 22.354 268.213 24.944 C 268.213 27.343,268.167 27.533,267.582 27.533 C 266.674 27.533,264.788 28.571,263.840 29.593 C 262.121 31.446,262.070 31.749,262.037 40.162 L 262.007 47.951 280.114 47.951 L 298.221 47.951 298.221 44.857 L 298.221 41.763 283.538 41.763 L 268.855 41.763 268.766 34.803 L 268.677 27.842 282.676 27.842 L 296.674 27.842 296.674 24.749 L 296.674 21.655 282.676 21.655 L 268.677 21.655 268.677 14.849 L 268.677 8.043 283.449 8.043 L 298.221 8.043 298.221 4.795 L 298.221 1.547 280.124 1.547 L 262.026 1.547 262.026 9.448 M326.725 2.088 C 326.566 2.386,324.909 6.110,323.041 10.363 C 319.812 17.719,319.221 19.047,317.514 22.796 C 317.112 23.679,316.783 24.467,316.783 24.547 C 316.783 24.689,315.194 28.242,313.980 30.815 C 313.650 31.514,313.380 32.169,313.380 32.271 C 313.380 32.372,312.972 33.331,312.474 34.402 C 311.975 35.473,311.123 37.394,310.581 38.670 C 310.038 39.946,309.279 41.686,308.894 42.537 C 307.404 45.826,306.574 47.721,306.574 47.833 C 306.574 48.314,313.725 47.899,313.884 47.409 C 314.171 46.522,316.211 41.658,316.577 40.990 C 316.763 40.650,316.920 40.297,316.926 40.207 C 316.932 40.116,317.202 39.455,317.526 38.737 L 318.114 37.432 330.276 37.432 C 342.997 37.432,342.956 37.428,343.026 38.670 C 343.031 38.755,343.476 39.799,344.015 40.990 C 344.555 42.181,345.025 43.295,345.059 43.465 C 345.094 43.635,345.362 44.225,345.653 44.776 C 345.945 45.328,346.179 45.851,346.172 45.940 C 346.165 46.028,346.374 46.517,346.637 47.026 L 347.116 47.951 350.665 47.951 C 352.618 47.951,354.215 47.897,354.215 47.831 C 354.215 47.765,353.779 46.755,353.247 45.588 C 352.715 44.420,351.898 42.630,351.432 41.609 C 350.967 40.588,350.480 39.404,350.352 38.979 C 350.223 38.554,350.010 38.067,349.878 37.896 C 349.747 37.726,349.270 36.682,348.818 35.576 C 348.366 34.470,347.801 33.148,347.561 32.637 C 346.424 30.211,344.934 26.842,344.934 26.696 C 344.934 26.607,344.447 25.493,343.852 24.221 C 343.256 22.950,342.769 21.843,342.769 21.762 C 342.769 21.682,342.404 20.824,341.958 19.856 C 340.708 17.142,335.300 4.834,335.204 4.486 C 335.158 4.316,334.857 3.586,334.536 2.865 L 333.952 1.553 330.483 1.550 C 327.493 1.547,326.973 1.622,326.725 2.088 M362.258 24.749 L 362.258 47.951 380.820 47.951 L 399.381 47.951 399.381 44.857 L 399.381 41.763 384.223 41.763 L 369.064 41.763 369.064 21.655 L 369.064 1.547 365.661 1.547 L 362.258 1.547 362.258 24.749 M239.698 9.110 C 244.615 11.834,244.229 19.666,239.064 22.001 C 237.464 22.723,237.227 22.740,226.991 22.834 L 216.551 22.930 216.551 15.468 L 216.551 8.007 227.301 8.102 L 238.051 8.198 239.698 9.110 M330.524 9.948 C 330.570 10.177,331.061 11.338,331.615 12.529 C 332.169 13.720,332.650 14.834,332.685 15.004 C 332.720 15.174,332.987 15.764,333.279 16.315 C 333.571 16.867,333.797 17.354,333.782 17.398 C 333.766 17.442,334.195 18.453,334.735 19.644 C 335.274 20.835,335.744 21.949,335.779 22.119 C 335.813 22.289,336.081 22.879,336.373 23.431 C 336.665 23.982,336.922 24.539,336.945 24.668 C 336.968 24.797,337.396 25.808,337.898 26.914 C 338.399 28.020,338.837 29.064,338.870 29.234 C 338.904 29.404,339.099 29.848,339.303 30.219 C 339.508 30.591,339.675 30.974,339.675 31.070 C 339.675 31.166,335.429 31.245,330.240 31.245 C 325.050 31.245,320.804 31.193,320.804 31.129 C 320.804 31.065,321.289 29.950,321.881 28.651 C 322.473 27.352,322.957 26.220,322.957 26.135 C 322.957 26.049,323.196 25.529,323.488 24.977 C 323.780 24.426,324.047 23.836,324.082 23.666 C 324.117 23.496,324.587 22.382,325.126 21.191 C 325.666 20.000,326.094 18.989,326.079 18.945 C 326.063 18.901,326.290 18.413,326.582 17.862 C 326.874 17.311,327.141 16.721,327.176 16.551 C 327.211 16.381,327.694 15.267,328.250 14.076 C 328.806 12.885,329.279 11.841,329.300 11.756 C 329.322 11.671,329.534 11.082,329.771 10.449 C 330.206 9.290,330.370 9.181,330.524 9.948 M376.752 69.609 C 369.134 70.338,362.404 75.482,361.981 80.897 C 361.218 90.681,365.268 94.876,376.643 96.083 C 387.232 97.206,390.168 98.146,391.561 100.860 C 396.692 110.862,375.960 115.370,368.497 105.875 L 367.465 104.563 363.934 104.563 C 361.991 104.563,360.402 104.647,360.402 104.750 C 360.402 105.742,363.048 109.711,365.029 111.689 C 374.808 121.455,395.935 118.194,398.695 106.493 C 398.991 105.240,398.942 100.483,398.626 99.768 C 398.475 99.428,398.339 99.080,398.324 98.995 C 398.199 98.300,396.380 95.779,395.255 94.742 C 392.280 92.001,389.773 91.216,380.793 90.220 C 370.919 89.124,368.682 87.830,368.682 83.217 C 368.682 74.652,386.166 72.877,391.261 80.924 L 392.111 82.267 395.746 82.278 C 397.746 82.284,399.381 82.168,399.381 82.021 C 399.381 81.118,396.753 77.183,394.896 75.303 C 390.552 70.909,384.153 68.901,376.752 69.609 M0.626 71.075 C 0.630 71.543,0.979 72.761,1.400 73.782 C 1.822 74.803,2.529 76.821,2.971 78.268 C 3.412 79.714,3.885 81.036,4.022 81.206 C 4.158 81.377,4.648 82.769,5.110 84.300 C 5.572 85.831,6.058 87.224,6.190 87.394 C 6.321 87.564,6.856 89.026,7.377 90.642 C 7.898 92.258,8.866 95.112,9.528 96.984 C 10.190 98.855,11.740 103.241,12.973 106.729 C 14.206 110.217,15.261 113.279,15.317 113.534 C 15.374 113.790,15.448 114.068,15.481 114.153 C 15.514 114.238,15.528 114.401,15.513 114.515 C 15.497 114.629,15.973 115.151,16.570 115.675 L 17.655 116.628 23.570 116.628 L 29.485 116.628 30.623 115.432 C 31.249 114.774,31.768 114.043,31.778 113.808 C 31.797 113.316,36.000 101.166,36.634 99.768 C 36.866 99.258,37.291 98.005,37.580 96.984 C 37.869 95.963,38.300 94.710,38.539 94.200 C 38.777 93.689,39.385 92.019,39.888 90.487 C 40.392 88.956,41.374 86.102,42.071 84.145 C 42.768 82.189,43.765 79.265,44.286 77.649 C 44.807 76.032,45.343 74.571,45.478 74.401 C 45.727 74.085,46.713 70.945,46.713 70.468 C 46.713 70.323,45.085 70.244,43.096 70.292 L 39.479 70.379 38.947 72.173 C 38.654 73.160,38.310 74.205,38.182 74.494 C 38.054 74.783,37.920 75.124,37.884 75.251 C 37.848 75.379,37.784 75.553,37.742 75.638 C 37.699 75.723,37.641 75.897,37.612 76.025 C 37.427 76.853,36.682 78.795,36.426 79.118 C 36.257 79.331,36.223 79.505,36.350 79.505 C 36.476 79.505,36.389 79.735,36.155 80.017 C 35.922 80.298,35.788 80.542,35.858 80.558 C 36.046 80.602,35.234 83.002,34.879 83.449 C 34.710 83.662,34.676 83.836,34.803 83.836 C 34.930 83.836,34.889 84.010,34.712 84.223 C 34.536 84.435,34.402 84.679,34.415 84.764 C 34.462 85.082,33.628 87.408,33.332 87.780 C 33.164 87.993,33.129 88.167,33.256 88.167 C 33.383 88.167,33.295 88.397,33.062 88.679 C 32.828 88.960,32.694 89.204,32.764 89.220 C 32.953 89.264,32.141 91.664,31.786 92.111 C 31.617 92.324,31.582 92.498,31.709 92.498 C 31.836 92.498,31.795 92.672,31.619 92.885 C 31.442 93.097,31.285 93.411,31.270 93.581 C 31.212 94.225,30.532 96.073,30.199 96.490 C 30.009 96.729,29.888 96.972,29.930 97.031 C 29.973 97.090,29.990 97.208,29.969 97.293 C 29.948 97.378,29.907 97.552,29.879 97.680 C 29.715 98.411,28.963 100.433,28.756 100.696 C 28.623 100.866,28.502 101.110,28.487 101.237 C 28.473 101.365,28.444 101.539,28.422 101.624 C 28.401 101.709,28.360 101.883,28.332 102.011 C 28.209 102.566,27.124 105.674,26.955 105.955 C 26.853 106.125,26.749 106.369,26.726 106.497 C 26.702 106.624,26.647 106.798,26.605 106.883 C 26.562 106.968,26.504 107.142,26.476 107.270 C 26.354 107.814,25.580 110.003,25.409 110.286 C 25.306 110.456,25.203 110.700,25.179 110.828 C 25.155 110.955,25.101 111.129,25.058 111.214 C 25.015 111.299,24.955 111.473,24.924 111.601 C 24.369 113.885,23.377 115.919,23.352 114.823 C 23.349 114.710,23.263 114.478,23.160 114.308 C 22.989 114.024,22.215 111.836,22.094 111.292 C 22.065 111.164,22.007 110.990,21.964 110.905 C 21.922 110.820,21.868 110.646,21.844 110.518 C 21.820 110.391,21.716 110.147,21.614 109.977 C 21.387 109.602,20.619 107.255,20.651 107.038 C 20.664 106.953,20.530 106.709,20.353 106.497 C 20.177 106.284,20.136 106.110,20.263 106.110 C 20.390 106.110,20.355 105.936,20.186 105.723 C 19.891 105.351,19.057 103.025,19.104 102.707 C 19.117 102.622,18.983 102.378,18.807 102.166 C 18.630 101.953,18.589 101.779,18.716 101.779 C 18.843 101.779,18.808 101.605,18.640 101.392 C 18.344 101.020,17.510 98.694,17.558 98.376 C 17.570 98.291,17.436 98.047,17.260 97.834 C 17.083 97.622,17.043 97.448,17.169 97.448 C 17.296 97.448,17.262 97.274,17.093 97.061 C 16.837 96.738,16.092 94.795,15.906 93.968 C 15.878 93.840,15.820 93.666,15.777 93.581 C 15.735 93.496,15.680 93.322,15.657 93.194 C 15.633 93.067,15.529 92.823,15.426 92.653 C 15.255 92.369,14.481 90.181,14.360 89.637 C 14.331 89.509,14.273 89.335,14.230 89.250 C 14.188 89.165,14.134 88.991,14.110 88.863 C 14.086 88.735,13.982 88.492,13.880 88.322 C 13.579 87.823,12.882 85.540,13.021 85.508 C 13.091 85.491,12.957 85.248,12.723 84.966 C 12.490 84.685,12.402 84.455,12.529 84.455 C 12.656 84.455,12.621 84.281,12.453 84.068 C 12.196 83.745,11.451 81.802,11.266 80.974 C 11.238 80.847,11.179 80.673,11.137 80.588 C 11.094 80.503,11.040 80.329,11.016 80.201 C 10.992 80.073,10.889 79.830,10.786 79.660 C 10.607 79.362,9.790 77.039,9.753 76.721 C 9.743 76.636,9.625 76.392,9.490 76.179 C 9.355 75.967,9.339 75.793,9.455 75.793 C 9.571 75.793,9.528 75.619,9.359 75.406 C 9.053 75.020,8.300 72.949,8.155 72.094 C 7.866 70.380,7.516 70.224,3.969 70.224 L 0.619 70.224 0.626 71.075 M56.922 77.766 C 56.922 86.102,57.046 86.795,58.883 88.735 C 60.054 89.971,61.256 90.642,62.298 90.642 C 63.050 90.642,63.067 90.696,63.164 93.427 C 63.262 96.177,63.255 96.212,62.532 96.211 C 60.785 96.209,57.818 98.624,57.262 100.500 C 57.179 100.778,57.065 104.520,57.007 108.817 L 56.902 116.628 75.164 116.628 L 93.426 116.628 93.426 113.380 L 93.426 110.131 78.577 110.131 L 63.728 110.131 63.728 103.326 L 63.728 96.520 77.649 96.520 L 91.570 96.520 91.570 93.426 L 91.570 90.333 77.649 90.333 L 63.728 90.333 63.728 83.527 L 63.728 76.721 78.577 76.721 L 93.426 76.721 93.426 73.473 L 93.426 70.224 75.174 70.224 L 56.922 70.224 56.922 77.766 M106.110 93.426 L 106.110 116.628 109.510 116.628 L 112.911 116.628 112.991 98.496 L 113.070 80.363 119.258 88.612 C 122.660 93.148,125.654 97.119,125.909 97.435 C 126.164 97.750,126.582 98.313,126.837 98.685 C 127.092 99.057,127.510 99.614,127.765 99.923 C 128.020 100.231,128.438 100.792,128.693 101.169 C 128.948 101.546,129.304 102.012,129.484 102.203 C 129.664 102.395,131.056 104.223,132.578 106.265 C 134.099 108.306,135.483 110.134,135.654 110.326 C 135.824 110.517,136.172 110.983,136.427 111.360 C 136.682 111.737,137.100 112.298,137.355 112.606 C 137.610 112.915,138.028 113.472,138.283 113.844 C 138.725 114.488,139.433 115.399,140.146 116.241 C 140.374 116.511,141.594 116.628,144.173 116.628 L 147.873 116.628 147.873 93.426 L 147.873 70.224 144.470 70.224 L 141.067 70.224 141.067 88.545 L 141.067 106.866 140.371 105.916 C 139.316 104.477,135.164 98.967,123.791 83.913 L 113.449 70.224 109.780 70.224 L 106.110 70.224 106.110 93.426 M158.391 73.473 L 158.391 76.721 167.131 76.721 L 175.870 76.721 175.788 96.674 L 175.706 116.628 179.114 116.628 L 182.521 116.628 182.521 96.674 L 182.521 76.721 191.338 76.721 L 200.155 76.721 200.155 73.473 L 200.155 70.224 179.273 70.224 L 158.391 70.224 158.391 73.473 M210.753 85.770 C 210.812 94.319,210.956 101.663,211.073 102.088 C 211.190 102.514,211.347 103.140,211.422 103.480 C 213.425 112.625,220.600 117.466,231.709 117.168 C 240.944 116.921,246.648 113.359,249.366 106.142 C 250.043 104.345,250.142 104.004,250.593 101.933 C 250.741 101.253,250.869 93.840,250.876 85.460 L 250.889 70.224 247.486 70.224 L 244.084 70.224 244.044 85.151 C 244.022 93.360,243.962 100.356,243.910 100.696 C 242.813 107.832,237.906 111.384,229.702 110.982 C 224.345 110.720,220.977 108.759,219.044 104.775 C 217.660 101.924,217.680 102.175,217.559 85.615 L 217.447 70.224 214.046 70.224 L 210.646 70.224 210.753 85.770 M262.336 93.426 L 262.336 116.628 265.739 116.628 L 269.142 116.628 269.142 107.193 L 269.142 97.757 275.148 97.757 L 281.154 97.757 282.340 99.268 C 282.993 100.099,283.735 101.090,283.991 101.471 C 284.246 101.852,284.601 102.321,284.779 102.513 C 284.957 102.705,285.723 103.697,286.480 104.718 C 287.238 105.739,287.997 106.731,288.167 106.923 C 288.337 107.114,288.685 107.584,288.940 107.966 C 289.196 108.348,289.550 108.817,289.729 109.009 C 289.907 109.201,290.672 110.193,291.430 111.214 C 293.143 113.522,293.143 113.523,293.932 114.462 C 294.288 114.888,294.789 115.549,295.044 115.932 C 295.550 116.691,303.790 117.056,303.790 116.319 C 303.790 116.148,303.685 116.008,303.558 116.007 C 303.430 116.006,302.996 115.522,302.594 114.931 C 302.192 114.340,301.635 113.588,301.357 113.260 C 301.078 112.932,300.642 112.356,300.387 111.979 C 300.131 111.602,299.772 111.135,299.588 110.941 C 299.404 110.748,298.360 109.395,297.268 107.936 C 292.504 101.573,290.627 99.110,290.109 98.548 C 289.404 97.781,289.592 97.645,292.014 97.171 C 299.895 95.628,303.919 88.412,301.825 79.581 C 301.466 78.071,299.588 75.068,298.282 73.919 C 294.506 70.595,292.373 70.249,275.561 70.235 L 262.336 70.224 262.336 93.426 M314.056 78.513 L 314.153 86.801 315.194 88.115 C 316.325 89.542,318.155 90.642,319.400 90.642 C 320.183 90.642,320.186 90.651,320.186 93.426 C 320.186 96.082,320.155 96.210,319.510 96.210 C 318.342 96.210,316.216 97.448,315.217 98.710 C 314.688 99.377,314.365 99.923,314.498 99.923 C 314.632 99.923,314.574 100.090,314.370 100.294 C 314.100 100.563,313.998 102.851,313.998 108.647 L 313.998 116.628 332.096 116.628 L 350.193 116.628 350.193 113.380 L 350.193 110.131 335.422 110.132 L 320.650 110.132 320.738 103.326 L 320.827 96.520 334.737 96.520 L 348.647 96.520 348.647 93.426 L 348.647 90.333 334.648 90.333 L 320.650 90.333 320.650 83.527 L 320.650 76.721 335.422 76.721 L 350.193 76.721 350.193 73.473 L 350.193 70.224 332.076 70.224 L 313.958 70.224 314.056 78.513 M291.415 77.366 C 297.309 80.037,296.925 89.079,290.840 90.902 C 290.036 91.143,286.276 91.261,279.392 91.261 L 269.142 91.261 269.142 83.991 L 269.142 76.721 279.582 76.728 C 289.422 76.734,290.103 76.771,291.415 77.366 M17.633 84.591 C 17.633 84.836,17.754 85.111,17.900 85.202 C 18.047 85.293,18.345 86.032,18.562 86.844 C 18.780 87.657,19.163 88.774,19.413 89.327 L 19.869 90.333 23.536 90.333 C 26.904 90.333,27.229 90.281,27.538 89.704 C 27.849 89.123,29.389 84.619,29.389 84.291 C 29.389 84.211,26.744 84.145,23.511 84.145 C 18.600 84.145,17.633 84.219,17.633 84.591 "
            stroke="none" fill="#b1b1b1" fill-rule="evenodd"></path>
    </g>
</svg>