<svg width="290" height="93" viewBox="0 0 290 93" fill="none" xmlns="http://www.w3.org/2000/svg">
    <g clip-path="url(#clip0_414_978)">
        <path
            d="M22.2553 22.3117H25.5916V73.8782C25.5916 85.2961 16.8394 93.0001 0 93.0001V82.157C7.23058 82.157 10.843 79.1137 10.843 72.9258V22.3117H22.2553ZM12.4605 13.9371C11.6924 13.1879 11.0821 12.2926 10.6653 11.3039C10.2486 10.3152 10.0339 9.25317 10.0339 8.18025C10.0339 7.10733 10.2486 6.04525 10.6653 5.05656C11.0821 4.06788 11.6924 3.17258 12.4605 2.4234C13.2097 1.65536 14.105 1.045 15.0936 0.62826C16.0823 0.211521 17.1444 -0.00317383 18.2173 -0.00317383C19.2903 -0.00317383 20.3523 0.211521 21.341 0.62826C22.3297 1.045 23.225 1.65536 23.9742 2.4234C24.7422 3.17258 25.3526 4.06788 25.7693 5.05656C26.1861 6.04525 26.4007 7.10733 26.4007 8.18025C26.4007 9.25317 26.1861 10.3152 25.7693 11.3039C25.3526 12.2926 24.7422 13.1879 23.9742 13.9371C23.225 14.7051 22.3297 15.3155 21.341 15.7322C20.3523 16.149 19.2903 16.3637 18.2173 16.3637C17.1444 16.3637 16.0823 16.149 15.0936 15.7322C14.105 15.3155 13.2097 14.7051 12.4605 13.9371Z"
            fill="#b1b1b1" />
        <path
            d="M68.2876 22.3118H83.0362V71.1168H68.2876V63.982C66.0547 66.5764 63.2777 68.6471 60.1539 70.0468C57.0302 71.4465 53.6364 72.1408 50.214 72.0805C39.1737 72.0805 31.8473 65.2331 31.8473 52.3894V22.323H46.6015V46.7763C46.6015 55.2298 49.9322 59.5242 56.6894 59.5242C63.1591 59.5242 68.2932 54.4802 68.2932 44.4882L68.2876 22.3118Z"
            fill="#b1b1b1" />
        <path
            d="M175.061 41.084V71.1447H160.318V46.2181C160.318 38.0351 157.177 33.9455 150.895 33.9492C144.809 33.9492 139.573 39.0833 139.573 48.9796V71.1447H124.825V46.2181C124.825 38.0351 121.686 33.9455 115.407 33.9492C109.321 33.9492 104.085 39.0833 104.085 48.9796V71.1447H89.3368V22.3397H104.085V29.3787C108.938 24.053 114.647 21.3873 121.404 21.3873C129.964 21.3873 135.493 24.718 138.052 31.3794C143.289 24.6992 149.569 21.3591 156.892 21.3591C168.214 21.3591 175.061 27.4457 175.061 41.084Z"
            fill="#b1b1b1" />
        <path
            d="M229.891 28.0206C234.647 32.5855 237.025 38.7679 237.025 46.6691C237.025 54.5703 234.647 60.7583 229.891 65.2218C225.134 69.7867 219.138 72.0691 211.811 72.0691C205.342 72.0691 200.108 69.9764 196.11 65.791V92.0533H181.367V22.3117H196.11V27.5585C200.108 23.3768 205.342 21.2841 211.811 21.2804C219.138 21.2635 225.134 23.5459 229.891 28.0206ZM221.612 46.6691C221.612 37.9169 216.19 32.1121 208.864 32.1121C201.633 32.1121 196.11 37.6295 196.11 46.6691C196.11 55.7087 201.633 61.2261 208.864 61.2261C216.19 61.2261 221.612 55.4213 221.612 46.6691Z"
            fill="#b1b1b1" />
    </g>
    <path d="M289.333 57.6282L289.333 69.1538L243.231 69.1538L243.231 57.6282L289.333 57.6282Z" fill="#1CE7C2" />
    <defs>
        <clipPath id="clip0_414_978">
            <rect width="237.025" height="93" fill="white" />
        </clipPath>
    </defs>
</svg>