<?xml version="1.0" encoding="UTF-8" standalone="no" ?>
<!DOCTYPE svg PUBLIC "-//W3C//DTD SVG 1.1//EN" "http://www.w3.org/Graphics/SVG/1.1/DTD/svg11.dtd">
<svg xmlns="http://www.w3.org/2000/svg" xmlns:xlink="http://www.w3.org/1999/xlink" version="1.1" width="480.39643559275066" height="96.96000000000004" viewBox="79.90356440724929 271.91999999999996 480.39643559275066 96.96000000000004" xml:space="preserve">
<desc>Created with Fabric.js 4.6.0</desc>
<defs>
</defs>
<g transform="matrix(1 0 0 1 436.77 321.45)" id="24EUsWxYL9ICzdsDlM_Wo"  >
<path style="stroke: none; stroke-width: 1; stroke-dasharray: none; stroke-linecap: butt; stroke-dashoffset: 0; stroke-linejoin: miter; stroke-miterlimit: 4; fill: rgb(177,177,177); fill-rule: evenodd; opacity: 1;" vector-effect="non-scaling-stroke"  transform=" translate(-416.77, -226.45)" d="M 449.7 199.6 C 442 199.6 435.2 202.79999999999998 430.3 208 L 394.7 241.5 C 391.4 244.5 387.3 246.2 383.09999999999997 246 L 382.29999999999995 246 C 372.9 245.3 365.19999999999993 237.5 364.49999999999994 228.1 C 364.09999999999997 222.6 365.99999999999994 217.4 369.69999999999993 213.4 C 373.3999999999999 209.4 378.49999999999994 207.20000000000002 383.8999999999999 207.20000000000002 C 388.3999999999999 207.20000000000002 392.8999999999999 208.8 396.3999999999999 211.70000000000002 C 397.99999999999994 213.10000000000002 400.49999999999994 212.9 401.8999999999999 211.3 C 403.2999999999999 209.70000000000002 403.0999999999999 207.20000000000002 401.49999999999994 205.8 C 396.59999999999997 201.70000000000002 390.3999999999999 199.4 383.99999999999994 199.4 C 376.49999999999994 199.4 369.29999999999995 202.6 364.09999999999997 208 C 358.9 213.6 356.29999999999995 220.7 356.79999999999995 228.4 C 357.79999999999995 241.70000000000002 368.4 252.5 381.69999999999993 253.5 L 383.5999999999999 253.5 C 389.4999999999999 253.5 395.4999999999999 251 399.9999999999999 246.8 L 422.89999999999986 225.3 L 422.89999999999986 226.4 C 422.89999999999986 241.3 435.09999999999985 253.5 449.9999999999999 253.5 C 454.7999999999999 253.5 459.5999999999999 252.3 463.6999999999999 249.8 C 465.4999999999999 248.70000000000002 466.09999999999985 246.3 465.09999999999985 244.5 C 463.99999999999983 242.7 461.59999999999985 242.1 459.79999999999984 243.1 C 456.79999999999984 244.9 453.49999999999983 245.7 449.89999999999986 245.7 C 439.1999999999999 245.7 430.4999999999999 237.1 430.4999999999999 226.29999999999998 C 430.4999999999999 221.2 432.5999999999999 216.6 435.6999999999999 212.99999999999997 L 436.1999999999999 212.49999999999997 L 436.4999999999999 212.19999999999996 C 440.0999999999999 208.79999999999995 444.7999999999999 206.89999999999995 449.7999999999999 206.89999999999995 C 460.4999999999999 206.89999999999995 469.1999999999999 215.59999999999994 469.1999999999999 226.29999999999995 C 469.1999999999999 226.29999999999995 469.1999999999999 226.29999999999995 469.1999999999999 226.29999999999995 L 469.1999999999999 249.59999999999997 C 469.1999999999999 251.79999999999995 470.9999999999999 253.39999999999998 472.9999999999999 253.39999999999998 C 475.1999999999999 253.39999999999998 476.7999999999999 251.59999999999997 476.7999999999999 249.59999999999997 L 476.7999999999999 226.29999999999995 C 476.8 211.8 464.6 199.6 449.7 199.6" stroke-linecap="round" />
</g>
<g transform="matrix(1 0 0 1 533.9 331.48)" id="TSFjGjiZfibbjnsO45AbB"  >
<path style="stroke: none; stroke-width: 1; stroke-dasharray: none; stroke-linecap: butt; stroke-dashoffset: 0; stroke-linejoin: miter; stroke-miterlimit: 4; fill: rgb(177,177,177); fill-rule: evenodd; opacity: 1;" vector-effect="non-scaling-stroke"  transform=" translate(-345.3, -227.5)" d="M 344.1 237.1 C 339.1 237.1 334.3 235.2 330.70000000000005 231.79999999999998 C 329.20000000000005 230.29999999999998 328.00000000000006 228.7 327.00000000000006 226.89999999999998 L 327.00000000000006 208.49999999999997 C 327.30000000000007 207.99999999999997 328.00000000000006 206.99999999999997 328.6000000000001 205.99999999999997 C 332.30000000000007 201.09999999999997 337.9000000000001 198.19999999999996 344.1000000000001 198.19999999999996 C 354.80000000000007 198.19999999999996 363.50000000000006 206.89999999999995 363.50000000000006 217.59999999999997 C 363.50000000000006 217.59999999999997 363.50000000000006 217.59999999999997 363.50000000000006 217.59999999999997 C 363.4 228.4 354.8 237.1 344.1 237.1 M 344.1 190.6 C 337.70000000000005 190.6 331.8 192.79999999999998 327 196.79999999999998 L 327 194.89999999999998 C 327 192.7 325.2 191.09999999999997 323.2 191.09999999999997 C 321 191.09999999999997 319.4 192.89999999999998 319.4 194.89999999999998 L 319.4 260.59999999999997 C 319.4 262.79999999999995 321.2 264.4 323.2 264.4 C 325.4 264.4 327 262.59999999999997 327 260.59999999999997 L 327 238.69999999999996 C 331.8 242.69999999999996 337.9 244.89999999999995 344.1 244.89999999999995 C 359 244.89999999999995 371.20000000000005 232.69999999999996 371.20000000000005 217.79999999999995 C 371.1 202.8 359 190.6 344.1 190.6" stroke-linecap="round" />
</g>
<g transform="matrix(1 0 0 1 102.67 310.52)" id="4fTTgey1GHRztHSPiByEO"  >
<path style="stroke: none; stroke-width: 1; stroke-dasharray: none; stroke-linecap: butt; stroke-dashoffset: 0; stroke-linejoin: miter; stroke-miterlimit: 4; fill: rgb(177,177,177); fill-rule: evenodd; opacity: 1;" vector-effect="non-scaling-stroke"  transform=" translate(-82.67, -215.1)" d="M 101.4 253.2 L 86 253.2 C 71.9 253.2 60.4 241.7 60.4 227.6 L 60.4 180.8 C 60.4 178.60000000000002 62.199999999999996 177 64.2 177 C 66.3 177 68 178.8 68 180.8 L 68 227.60000000000002 C 68 237.50000000000003 76.1 245.50000000000003 85.9 245.50000000000003 L 101.10000000000001 245.50000000000003 C 103.30000000000001 245.50000000000003 104.9 247.30000000000004 104.9 249.30000000000004 C 105.2 251.4 103.4 253.2 101.4 253.2" stroke-linecap="round" />
</g>
<g transform="matrix(1 0 0 1 247.8 312.38)" id="ONiwV6jt1vZAkPyyjTuqu"  >
<path style="stroke: none; stroke-width: 1; stroke-dasharray: none; stroke-linecap: butt; stroke-dashoffset: 0; stroke-linejoin: miter; stroke-miterlimit: 4; fill: rgb(177,177,177); fill-rule: evenodd; opacity: 1;" vector-effect="non-scaling-stroke"  transform=" translate(-227.8, -217.38)" d="M 132.6 206.9 C 121.89999999999999 206.9 113.19999999999999 215.70000000000002 113.19999999999999 226.3 C 113.19999999999999 230.3 114.39999999999999 234.10000000000002 116.49999999999999 237.3 C 116.59999999999998 237 116.89999999999999 236.8 117.19999999999999 236.5 L 143.5 210.2 C 140.2 208 136.4 206.9 132.6 206.9 M 132.6 253.6 C 117.69999999999999 253.6 105.39999999999999 241.4 105.39999999999999 226.4 C 105.39999999999999 211.4 117.6 199.20000000000002 132.6 199.20000000000002 C 132.6 199.20000000000002 132.6 199.20000000000002 132.6 199.20000000000002 C 139.79999999999998 199.20000000000002 146.7 202.00000000000003 151.79999999999998 207.10000000000002 C 153.29999999999998 208.60000000000002 153.29999999999998 211.10000000000002 151.79999999999998 212.60000000000002 L 122.49999999999999 241.90000000000003 C 122.19999999999999 242.20000000000005 121.99999999999999 242.30000000000004 121.69999999999999 242.60000000000002 C 124.89999999999999 244.70000000000002 128.79999999999998 245.90000000000003 132.7 245.90000000000003 C 136.79999999999998 245.90000000000003 140.89999999999998 244.60000000000002 144.2 242.10000000000002 C 146 240.90000000000003 148.29999999999998 241.10000000000002 149.5 242.90000000000003 C 150.7 244.70000000000005 150.5 247.00000000000003 148.7 248.20000000000005 C 144 251.6 138.4 253.6 132.6 253.6 M 206.4 199.9 C 201.1 199.9 196 202.3 192.70000000000002 206.5 C 189.4 202.4 184.50000000000003 199.8 178.9 199.8 C 174.8 199.8 170.8 201.20000000000002 167.70000000000002 203.9 C 167.00000000000003 203.4 166.20000000000002 202.9 165.20000000000002 202.9 C 163.00000000000003 202.9 161.4 204.70000000000002 161.4 206.70000000000002 L 161.4 249.70000000000002 C 161.4 251.9 163.20000000000002 253.50000000000003 165.20000000000002 253.50000000000003 C 167.3 253.50000000000003 169.00000000000003 251.70000000000002 169.00000000000003 249.70000000000002 L 169.00000000000003 217.40000000000003 C 169.00000000000003 211.90000000000003 173.50000000000003 207.50000000000003 178.90000000000003 207.50000000000003 C 184.40000000000003 207.50000000000003 188.80000000000004 212.00000000000003 188.80000000000004 217.40000000000003 L 188.80000000000004 249.60000000000002 C 188.80000000000004 251.8 190.60000000000005 253.40000000000003 192.60000000000005 253.40000000000003 C 194.80000000000004 253.40000000000003 196.40000000000006 251.60000000000002 196.40000000000006 249.60000000000002 L 196.40000000000006 217.60000000000002 C 196.40000000000006 212.10000000000002 200.90000000000006 207.70000000000002 206.30000000000007 207.70000000000002 C 211.80000000000007 207.70000000000002 216.20000000000007 212.20000000000002 216.20000000000007 217.60000000000002 L 216.20000000000007 249.8 C 216.20000000000007 252 218.00000000000009 253.60000000000002 220.00000000000009 253.60000000000002 C 222.20000000000007 253.60000000000002 223.8000000000001 251.8 223.8000000000001 249.8 L 223.8000000000001 217.60000000000002 C 224.1 207.8 216.1 199.9 206.4 199.9 M 256.8 199.9 C 251.5 199.9 246.4 201.8 242.4 205.4 C 241.9 204 240.5 202.9 238.8 202.9 C 236.60000000000002 202.9 235 204.70000000000002 235 206.70000000000002 L 235 249.70000000000002 C 235 251.9 236.8 253.50000000000003 238.8 253.50000000000003 C 241 253.50000000000003 242.60000000000002 251.70000000000002 242.60000000000002 249.70000000000002 L 242.60000000000002 221.50000000000003 C 242.60000000000002 213.70000000000002 248.90000000000003 207.40000000000003 256.70000000000005 207.40000000000003 C 256.70000000000005 207.40000000000003 256.70000000000005 207.40000000000003 256.70000000000005 207.40000000000003 C 264.50000000000006 207.40000000000003 270.80000000000007 213.70000000000005 270.80000000000007 221.50000000000003 C 270.80000000000007 221.50000000000003 270.80000000000007 221.50000000000003 270.80000000000007 221.50000000000003 L 270.80000000000007 249.70000000000002 C 270.80000000000007 251.9 272.6000000000001 253.50000000000003 274.6000000000001 253.50000000000003 C 276.80000000000007 253.50000000000003 278.4000000000001 251.70000000000002 278.4000000000001 249.70000000000002 L 278.4000000000001 221.60000000000002 C 278.6 209.7 268.9 199.9 256.8 199.9 C 256.8 199.9 256.8 199.9 256.8 199.9 M 334.4 253.6 L 314.79999999999995 253.6 C 312.59999999999997 253.6 310.99999999999994 251.79999999999998 310.99999999999994 249.79999999999998 C 310.99999999999994 247.6 312.79999999999995 245.99999999999997 314.79999999999995 245.99999999999997 L 334.4 245.99999999999997 C 334.5 245.99999999999997 338.09999999999997 245.99999999999997 340.29999999999995 243.79999999999998 C 341.49999999999994 242.6 342.19999999999993 240.6 342.19999999999993 238.2 C 342.19999999999993 235.7 341.49999999999994 233.79999999999998 340.29999999999995 232.6 C 338.09999999999997 230.4 334.49999999999994 230.4 334.49999999999994 230.4 L 323.69999999999993 230.4 C 322.8999999999999 230.4 316.69999999999993 230.3 312.29999999999995 225.9 C 309.69999999999993 223.3 308.29999999999995 219.70000000000002 308.29999999999995 215.5 C 308.29999999999995 204.1 318.29999999999995 200.3 323.49999999999994 199.9 L 342.69999999999993 199.9 C 344.8999999999999 199.9 346.49999999999994 201.70000000000002 346.49999999999994 203.70000000000002 C 346.49999999999994 205.8 344.69999999999993 207.50000000000003 342.69999999999993 207.50000000000003 L 324.0999999999999 207.50000000000003 C 322.5999999999999 207.60000000000002 316.19999999999993 208.70000000000002 316.19999999999993 215.40000000000003 C 316.19999999999993 217.60000000000002 316.79999999999995 219.20000000000005 317.99999999999994 220.30000000000004 C 320.19999999999993 222.50000000000003 323.8999999999999 222.60000000000005 323.99999999999994 222.60000000000005 L 334.79999999999995 222.60000000000005 C 335.29999999999995 222.60000000000005 341.49999999999994 222.60000000000005 345.99999999999994 227.00000000000006 C 348.8999999999999 229.70000000000005 350.19999999999993 233.40000000000006 350.19999999999993 238.10000000000005 C 350.19999999999993 242.80000000000004 348.79999999999995 246.50000000000006 345.99999999999994 249.20000000000005 C 341.4 253.3 335.7 253.6 334.4 253.6 M 293.3 253.6 C 291.2 253.6 289.5 251.9 289.5 249.79999999999998 C 289.5 249.79999999999998 289.5 249.79999999999998 289.5 249.79999999999998 L 289.5 204.59999999999997 C 289.5 202.39999999999998 291.3 200.79999999999995 293.3 200.79999999999995 C 295.3 200.79999999999995 297.1 202.59999999999997 297.1 204.59999999999997 L 297.1 249.79999999999995 C 297.2 251.8 295.5 253.6 293.3 253.6 M 288.3 191.1 C 287.7 191.1 287.1 190.79999999999998 286.7 190.4 C 285.7 189.4 285.7 188.1 286.7 187.1 L 291.9 181.9 C 292.9 180.9 294.2 180.9 295.2 181.9 L 300.3 187 C 301.3 188 301.3 189.3 300.3 190.3 C 299.3 191.3 298 191.3 297 190.3 L 293.6 186.9 L 290 190.5 C 289.5 191 288.8 191.1 288.3 191.1" stroke-linecap="round" />
</g>
</svg>